{"glyphs":{"0":{"ha":644,"x_min":47,"x_max":708,"o":"m 469 994 l 497 994 q 692 811 639 994 q 708 694 708 760 l 708 600 q 497 83 708 318 q 319 0 411 0 l 275 0 q 58 222 136 0 l 47 317 l 47 361 q 269 894 47 635 q 469 994 382 994 m 175 289 l 175 222 q 297 56 175 56 q 464 244 446 56 l 464 250 l 475 250 q 442 100 475 172 q 592 417 508 156 q 631 728 631 596 q 514 956 613 956 l 469 956 q 225 600 350 956 q 175 289 175 422 m 325 439 q 458 328 393 439 l 469 261 l 458 261 q 342 400 458 356 l 319 400 q 219 283 243 400 l 219 272 q 292 183 219 199 l 297 183 q 353 228 328 183 l 358 228 l 358 222 q 297 150 350 150 q 208 283 208 174 q 325 439 225 439 z "},"1":{"ha":644,"x_min":-190,"x_max":610,"o":"m 560 967 l 599 967 l 610 956 l 321 6 l 315 0 l 226 0 q 215 17 215 0 q 449 800 421 665 q 204 606 264 606 l 193 606 q 104 672 104 606 l 104 683 l 121 739 l 132 739 l 126 717 q 188 633 139 633 q 293 706 229 633 l 393 800 l 321 794 l 282 800 q 149 772 207 800 l 149 778 q 393 833 149 825 q 488 928 443 833 q 560 967 522 967 m 49 478 q 199 394 167 478 l 204 356 q 138 206 175 206 l 132 206 q 176 322 176 258 q 71 444 176 426 l 15 444 q -96 389 -31 444 l -101 389 l -101 394 q 49 478 -17 478 m -112 378 l -112 372 l -129 356 l -129 361 l -112 378 m -135 350 l -135 339 q -168 222 -168 281 q 26 28 -128 28 l 38 28 l 149 44 q 15 0 79 0 l 4 0 q -185 133 -135 0 l -190 194 l -190 200 q -135 350 -190 285 m -24 278 l -12 278 l -24 233 q 60 172 -6 172 l 121 194 q 32 150 81 150 l 15 150 q -46 211 -29 150 l -24 278 m 160 56 l 165 56 l 165 44 l 149 44 l 160 56 z "},"2":{"ha":644,"x_min":14,"x_max":675,"o":"m 453 1000 l 486 1000 q 675 806 647 1000 q 314 300 675 657 l 214 194 q 453 100 414 100 l 486 100 q 631 222 539 100 l 636 222 l 647 211 q 486 11 600 88 l 447 0 l 414 0 q 131 100 307 26 l 42 11 l 31 11 q 14 33 17 11 l 125 206 l 42 339 l 25 400 l 25 411 l 36 411 q 136 244 36 376 l 147 211 l 169 211 q 542 828 542 608 q 464 939 531 939 l 447 939 q 525 778 525 842 l 514 778 q 436 906 493 860 l 386 933 q 253 789 299 896 l 219 678 l 203 678 l 186 689 q 292 928 193 810 l 281 928 q 169 794 169 874 l 158 794 q 253 944 158 858 q 369 978 313 978 q 453 1000 369 993 m 331 839 l 342 839 q 408 733 408 839 l 408 728 q 281 567 408 611 q 158 689 158 599 l 153 733 l 153 772 l 164 772 l 164 750 q 258 606 164 646 l 286 606 q 397 706 365 606 l 397 744 q 331 811 382 811 q 281 778 307 811 l 275 778 l 275 783 q 331 839 296 839 m 108 506 l 131 506 q 192 406 192 464 q 169 333 182 333 l 169 339 l 175 378 q 114 472 163 472 q 47 444 78 472 l 47 456 q 108 506 68 506 z "},"3":{"ha":885,"x_min":38,"x_max":869,"o":"m 649 994 l 701 994 q 869 807 843 994 q 507 478 869 618 l 507 471 q 822 296 754 471 l 829 236 l 829 210 q 540 -167 829 8 q 374 -207 456 -207 l 299 -207 q 38 1 38 -207 q 225 263 38 160 q 293 283 260 283 l 299 283 q 447 182 447 271 l 447 122 q 258 -51 389 -51 q 185 21 185 -35 q 218 82 204 82 l 225 82 l 213 42 q 299 -25 229 -25 q 414 75 363 -25 l 419 129 q 299 250 404 250 l 253 250 q 64 35 64 185 q 206 -153 106 -153 l 265 -160 l 326 -160 q 608 75 506 -160 q 668 331 654 233 q 533 424 618 424 l 474 424 l 360 404 l 353 404 l 339 417 l 339 431 q 628 618 529 531 q 722 819 722 717 q 642 921 706 921 l 601 921 q 374 746 510 921 l 367 746 q 346 774 350 746 q 649 994 481 994 z "},"4":{"ha":799,"x_min":57,"x_max":782,"o":"m 701 983 l 715 964 q 144 239 625 789 l 400 239 l 581 246 q 675 528 638 528 l 768 540 l 782 528 l 715 246 l 763 246 l 775 232 q 749 199 763 201 l 694 199 q 588 -183 613 -183 l 460 -204 l 453 -197 l 453 -190 l 561 192 l 547 192 l 64 185 l 57 206 q 526 943 335 583 q 701 983 629 983 z "},"5":{"ha":921,"x_min":50,"x_max":908,"o":"m 908 1006 l 908 992 q 694 838 908 857 l 432 831 l 311 456 l 318 456 q 539 536 426 536 l 586 536 q 828 281 800 536 q 513 -154 828 35 q 304 -208 397 -208 l 225 -208 q 83 -121 125 -208 q 50 -7 50 -81 q 238 254 50 151 q 304 275 272 275 l 311 275 q 460 174 460 263 l 460 114 q 271 -60 401 -60 q 197 13 197 -43 q 231 74 217 74 l 238 74 l 225 33 q 311 -33 242 -33 q 425 67 375 -33 l 432 121 q 311 242 417 242 l 265 242 q 76 26 76 176 q 225 -168 76 -111 l 292 -168 q 614 46 467 -168 q 681 315 640 118 q 533 476 644 476 l 479 476 q 271 368 424 476 l 258 368 l 244 382 q 432 958 400 924 l 486 972 l 733 972 q 908 1006 833 972 z "},"6":{"ha":765,"x_min":78,"x_max":760,"o":"m 617 1190 l 629 1190 l 650 1171 l 650 1158 q 214 274 214 703 l 214 254 q 344 53 236 53 l 383 53 q 571 242 493 53 l 571 261 q 449 436 564 404 l 429 436 q 318 307 318 436 l 299 300 l 299 274 q 376 196 314 196 l 383 196 q 429 235 429 201 l 442 235 q 376 157 426 157 q 286 288 286 157 l 286 319 q 488 683 286 575 l 539 697 l 585 697 q 760 463 722 697 q 532 53 760 236 q 364 1 439 1 q 85 254 139 1 l 78 326 q 590 1171 78 707 l 617 1190 m 350 443 q 429 482 401 482 q 585 314 546 482 l 585 274 l 590 274 q 617 443 617 372 l 617 528 q 558 632 617 597 l 507 632 q 350 443 425 632 z "},"7":{"ha":961,"x_min":57,"x_max":957,"o":"m 500 971 l 708 971 q 910 957 829 971 l 931 978 l 936 978 l 957 957 l 957 951 q 701 561 701 588 q 393 104 701 363 q 218 -190 229 -190 q 97 -204 185 -204 l 71 -204 q 57 -183 57 -204 q 211 51 86 -121 l 111 213 l 111 253 l 124 253 q 232 85 124 203 q 815 824 711 706 l 815 831 l 654 831 l 654 824 q 694 696 675 799 l 682 696 q 621 831 682 736 l 446 831 q 306 689 353 831 l 279 682 l 272 689 l 272 675 l 258 675 q 500 971 311 971 m 486 776 q 554 682 554 753 l 554 656 l 547 656 q 460 736 547 736 l 446 736 l 406 703 l 406 715 q 486 776 428 776 m 258 656 l 272 656 l 272 642 q 372 494 272 575 l 386 494 q 540 594 500 494 l 554 594 l 554 589 q 413 454 486 454 q 265 601 265 481 l 258 649 l 258 656 m 682 561 l 481 246 l 486 246 q 689 542 689 439 l 689 561 l 682 561 m 218 381 l 232 381 q 299 253 299 340 l 299 246 l 285 232 l 279 232 q 211 340 267 340 l 199 340 q 131 306 169 340 l 131 319 q 218 381 160 381 z "},"8":{"ha":790,"x_min":65,"x_max":785,"o":"m 507 1182 l 574 1182 q 785 971 785 1156 l 785 957 q 581 594 785 813 q 686 304 686 421 l 686 297 q 449 7 686 92 l 389 0 l 336 0 q 65 225 118 0 l 65 264 q 356 693 65 424 q 276 938 276 821 q 454 1168 276 1097 l 507 1182 m 396 971 q 554 633 396 889 l 560 633 q 706 964 706 813 q 593 1136 693 1136 l 528 1136 q 396 971 429 1136 m 164 278 q 349 46 164 89 l 375 46 q 547 204 494 46 l 554 251 l 554 278 q 468 422 554 404 l 461 422 q 317 336 358 422 l 303 336 l 303 343 q 442 463 375 463 l 461 463 l 494 456 l 389 640 l 382 640 q 164 278 164 443 m 296 310 l 310 310 l 310 283 l 296 283 l 296 310 m 310 264 q 382 192 318 192 q 435 218 406 192 l 442 218 q 396 158 414 167 l 363 158 q 290 257 300 158 l 296 264 l 310 264 z "},"9":{"ha":801,"x_min":97,"x_max":792,"o":"m 497 1022 l 525 1022 q 792 708 732 1022 l 792 608 q 451 -39 792 344 q 244 -207 281 -207 l 231 -186 l 231 -179 q 651 694 651 193 q 485 969 651 969 l 478 969 q 278 742 299 969 l 278 735 l 264 735 l 264 756 l 271 815 l 271 822 l 264 822 q 204 582 204 699 q 344 388 204 388 q 511 528 439 388 l 504 528 l 444 508 q 285 642 363 508 l 271 722 l 285 722 q 425 554 285 608 l 451 554 q 558 675 531 554 l 571 675 l 571 708 q 485 815 571 796 l 478 815 q 411 761 440 815 l 404 761 l 404 768 q 478 856 415 856 q 585 682 569 856 l 592 635 q 471 354 561 465 q 318 267 383 267 l 278 267 q 97 501 131 267 q 378 989 97 774 q 497 1022 436 1022 z "}," ":{"ha":492,"x_min":0,"x_max":0,"o":""},"!":{"ha":536,"x_min":142,"x_max":525,"o":"m 206 -6 q 142 18 142 -6 q 163 93 142 93 q 231 78 168 93 q 251 22 251 78 q 206 -6 251 -6 m 224 153 l 213 154 l 208 163 l 399 847 q 426 872 406 871 l 510 879 q 525 867 525 881 q 521 851 525 872 l 224 153 z "},"\"":{"ha":454,"x_min":61,"x_max":393,"o":"m 128 589 l 107 589 l 65 897 q 61 926 61 928 q 117 992 61 992 q 172 926 172 992 q 168 897 172 913 l 128 589 m 347 589 l 328 589 l 286 897 q 283 926 283 907 q 339 992 283 992 q 393 926 393 992 q 392 911 393 921 q 390 897 390 901 l 347 589 z "},"#":{"ha":1068,"x_min":78,"x_max":990,"o":"m 538 986 l 615 986 l 499 658 l 700 658 l 815 986 l 890 986 l 776 658 l 990 658 l 965 593 l 751 593 l 681 390 l 911 390 l 888 325 l 657 325 l 542 0 l 465 0 l 581 325 l 383 325 l 265 0 l 189 0 l 304 325 l 78 325 l 106 390 l 328 390 l 399 593 l 157 593 l 179 658 l 422 658 l 538 986 m 475 593 l 403 390 l 606 390 l 675 593 l 475 593 z "},"$":{"ha":869,"x_min":0,"x_max":833,"o":"m 706 1183 l 711 1178 l 678 1083 q 833 1006 821 1039 l 811 978 l 800 978 q 667 1039 703 1039 l 561 700 l 650 583 q 744 367 744 482 q 500 117 744 193 q 376 83 442 90 q 333 6 364 6 l 306 0 l 300 6 l 300 11 l 322 86 q 17 278 106 100 q 0 372 0 333 q 328 739 0 624 l 356 744 q 317 850 317 815 l 317 883 q 506 1072 317 1006 l 583 1083 l 628 1083 q 672 1178 644 1178 l 706 1183 m 422 911 l 422 883 q 517 728 422 824 l 617 1044 l 561 1044 q 422 911 422 1013 m 50 417 q 83 286 50 333 q 172 208 117 239 q 353 144 228 178 l 389 306 l 361 300 l 333 300 q 217 411 217 318 q 294 506 217 454 l 294 494 q 261 422 261 447 q 367 322 296 322 l 394 322 l 478 606 l 367 722 q 56 483 151 722 l 50 417 m 517 567 l 450 333 q 572 456 497 333 q 583 489 576 489 q 517 567 568 522 m 394 139 l 422 139 q 633 339 633 175 l 633 361 q 611 450 633 401 l 606 450 q 450 328 513 328 l 394 139 z "},"%":{"ha":1050,"x_min":0,"x_max":1033,"o":"m 383 1300 q 644 1083 565 1300 l 650 1022 l 650 983 q 850 1272 763 1085 l 856 1278 l 906 1278 l 906 1261 q 617 744 621 788 q 411 417 603 625 l 400 394 q 706 89 439 89 l 739 89 l 739 94 q 567 294 590 94 l 567 311 q 761 678 567 542 l 833 689 l 867 689 q 1033 467 992 689 l 1033 444 q 789 67 1033 224 q 650 39 696 39 q 389 256 468 39 l 383 361 l 378 361 q 167 0 197 36 l 111 0 l 106 6 l 100 6 q 394 483 369 399 q 461 578 421 485 l 617 839 l 617 844 l 611 844 q 428 594 488 764 l 417 594 q 578 872 435 710 l 572 872 l 522 861 l 494 861 l 467 867 q 339 694 435 756 q 183 661 300 678 q 0 872 38 661 l 0 894 q 244 1272 0 1115 q 383 1300 339 1300 m 28 906 q 100 744 50 804 l 111 744 q 67 867 67 799 l 67 889 q 217 1222 67 1076 l 211 1222 q 28 906 28 1125 m 156 833 q 239 717 156 717 q 422 906 371 717 q 322 1039 410 1039 q 256 1006 304 1039 l 244 1006 q 350 1083 293 1083 q 428 1039 386 1081 l 467 1133 q 389 1222 446 1222 l 350 1222 q 161 922 238 1222 l 156 833 m 467 1217 q 522 1078 522 1149 l 522 1050 q 494 911 522 1013 l 522 906 q 633 961 554 906 q 556 1156 610 1097 q 467 1217 492 1217 m 600 744 l 506 572 l 511 572 q 606 739 569 646 l 606 744 l 600 744 m 656 322 q 711 300 686 300 q 778 333 729 300 l 789 333 q 683 256 740 256 l 650 267 q 733 128 650 128 l 767 128 q 967 506 904 128 l 967 533 q 833 622 944 622 l 800 622 q 683 428 735 589 l 656 322 m 994 367 q 911 183 989 300 l 917 183 q 1000 356 993 283 l 1000 367 l 994 367 z "},"&":{"ha":1410,"x_min":0,"x_max":1383,"o":"m 722 1017 l 778 1017 q 872 994 872 1011 l 856 944 l 744 967 l 694 967 q 533 778 533 933 l 533 722 q 583 594 533 594 q 639 500 631 544 q 878 356 718 490 q 900 489 900 418 l 900 550 l 911 561 l 983 561 l 1017 567 l 1022 561 l 1050 567 l 1156 567 q 1328 700 1303 567 l 1328 750 q 1156 950 1328 896 l 1122 950 q 1006 844 1006 928 q 1039 778 1006 826 l 1039 767 q 961 872 961 815 q 1078 972 961 950 l 1089 972 q 1283 894 1283 935 q 1383 706 1383 804 q 1300 511 1383 606 q 944 461 1238 461 l 906 322 q 1100 11 1078 114 l 1094 6 l 1083 6 q 794 161 997 10 q 461 0 601 0 q 128 56 157 0 q 0 278 0 129 q 344 650 0 535 l 406 656 l 428 656 l 422 661 l 422 733 q 661 1011 422 931 l 722 1017 m 50 322 q 244 44 50 124 l 250 44 l 250 50 q 156 217 156 111 l 156 244 q 444 522 156 443 l 472 528 l 433 617 l 378 628 q 50 361 129 628 l 50 322 m 283 272 q 383 228 328 228 q 572 378 522 228 q 506 461 518 428 l 494 461 q 283 272 343 461 m 639 444 l 633 439 l 633 433 q 794 228 646 358 q 856 322 856 290 q 639 444 722 439 m 594 344 q 417 217 532 249 l 344 206 l 333 206 l 283 217 l 283 211 q 450 56 283 79 l 506 56 q 761 189 629 56 l 594 344 m 889 278 l 828 194 q 1000 78 950 99 l 1000 89 q 889 278 1000 168 z "},"'":{"ha":235,"x_min":61,"x_max":171,"o":"m 128 589 l 107 589 l 65 897 q 61 926 61 928 q 117 992 61 992 q 171 926 171 992 q 168 897 171 907 l 128 589 z "},"(":{"ha":578,"x_min":235,"x_max":718,"o":"m 367 -432 l 367 -440 l 347 -449 l 342 -444 q 235 117 235 -203 q 350 646 235 376 q 693 1208 461 906 l 701 1208 l 718 1201 l 717 1193 q 321 -94 321 513 q 367 -432 321 -310 z "},")":{"ha":578,"x_min":-8,"x_max":479,"o":"m 346 1193 l 346 1204 l 363 1208 l 372 1204 q 479 642 479 957 q 363 113 479 383 q 17 -449 250 -146 l 10 -449 l -8 -440 l -4 -435 q 393 856 393 263 q 346 1193 393 1051 z "},"*":{"ha":696,"x_min":97,"x_max":693,"o":"m 339 772 q 185 926 288 846 l 185 936 l 196 969 l 201 971 q 371 776 286 904 q 413 936 397 899 q 465 982 432 982 q 522 978 506 982 l 522 971 q 393 760 411 864 q 613 847 538 847 q 640 842 629 847 l 692 815 l 693 808 q 406 744 479 786 q 613 629 613 672 q 601 565 613 597 l 594 565 q 399 721 561 649 q 486 531 486 581 q 478 506 486 524 l 454 454 l 449 454 q 375 718 435 619 q 329 463 329 613 l 324 454 l 294 454 l 290 458 l 290 467 q 346 708 290 583 q 153 589 254 675 l 142 589 l 113 606 l 111 613 q 350 740 207 688 q 106 792 233 792 l 97 799 l 97 828 l 101 832 q 339 772 194 832 z "},"+":{"ha":1157,"x_min":172,"x_max":986,"o":"m 546 828 l 613 828 l 613 446 l 986 446 l 986 381 l 613 381 l 613 0 l 546 0 l 546 381 l 172 381 l 172 446 l 546 446 l 546 828 z "},",":{"ha":321,"x_min":39,"x_max":228,"o":"m 39 -142 l 50 -110 q 161 6 161 -44 q 132 35 161 35 q 97 25 124 35 l 90 31 l 107 93 q 163 121 114 121 q 228 54 228 121 q 39 -142 228 -46 z "},"-":{"ha":599,"x_min":181,"x_max":529,"o":"m 185 240 l 181 251 l 200 308 l 210 315 l 521 315 l 529 307 l 510 244 l 501 240 l 185 240 z "},".":{"ha":321,"x_min":72,"x_max":181,"o":"m 136 -6 q 72 18 72 -6 q 93 93 72 93 q 161 78 100 93 q 181 22 181 78 q 136 -6 181 -6 z "},"/":{"ha":465,"x_min":22,"x_max":621,"o":"m 99 -197 l 26 -197 l 22 -187 l 572 1115 l 617 1115 l 621 1107 l 99 -197 z "},":":{"ha":354,"x_min":89,"x_max":307,"o":"m 153 -6 q 89 18 89 -6 q 110 93 89 93 q 176 78 128 90 q 197 22 197 78 q 153 -6 197 -6 m 261 364 q 196 390 196 364 q 217 463 196 463 q 283 450 214 463 q 307 394 307 446 q 261 364 307 364 z "},";":{"ha":354,"x_min":56,"x_max":325,"o":"m 56 -142 l 64 -110 q 176 6 176 -44 q 149 35 176 35 q 113 25 142 35 l 107 31 l 124 93 q 179 121 131 121 q 244 54 244 121 q 56 -142 244 -44 m 279 364 q 217 390 217 364 q 236 463 217 463 q 304 450 233 463 q 325 394 325 446 q 279 364 325 364 z "},"<":{"ha":1157,"x_min":179,"x_max":978,"o":"m 978 769 l 978 696 l 283 414 l 978 133 l 978 60 l 179 388 l 179 443 l 978 769 z "},"=":{"ha":1157,"x_min":172,"x_max":986,"o":"m 172 574 l 986 574 l 986 506 l 172 506 l 172 574 m 172 321 l 986 321 l 986 256 l 172 256 l 172 321 z "},">":{"ha":1157,"x_min":179,"x_max":978,"o":"m 179 769 l 978 443 l 978 388 l 179 60 l 179 133 l 872 414 l 179 696 l 179 769 z "},"?":{"ha":592,"x_min":50,"x_max":583,"o":"m 361 1128 l 400 1128 q 572 978 511 1128 l 583 911 q 289 367 583 738 l 194 183 l 200 178 l 200 172 l 189 161 l 167 200 l 189 272 q 67 444 189 314 l 50 494 l 50 511 l 61 511 q 183 350 61 481 l 200 294 l 206 294 q 456 939 456 788 q 378 1072 456 1051 l 350 1078 l 311 1078 q 144 872 211 1078 l 144 861 q 250 739 144 794 l 261 739 q 383 844 383 765 l 383 872 q 306 956 374 956 q 267 917 267 944 l 256 917 l 256 922 q 306 983 256 976 l 322 983 q 394 850 394 983 q 283 706 358 706 l 267 706 q 139 833 175 706 l 139 839 q 117 794 131 839 l 100 794 l 89 806 q 206 1078 99 929 q 361 1128 279 1128 m 128 622 q 211 522 193 622 l 211 472 l 200 472 l 200 489 q 128 589 182 589 q 61 550 101 589 l 61 556 q 128 622 78 622 m 128 122 q 244 56 244 122 l 244 28 q 206 0 236 0 l 161 0 q 106 33 106 4 q 128 122 111 122 z "},"@":{"ha":1371,"x_min":0,"x_max":1411,"o":"m 744 1406 l 839 1406 q 1367 1083 1192 1406 q 1411 844 1411 956 q 1311 511 1411 664 q 1350 344 1350 401 q 1106 72 1350 151 q 783 0 947 0 l 706 0 q 78 350 293 0 q 0 661 0 500 q 439 1333 0 1086 q 744 1406 606 1406 m 89 656 l 89 617 q 550 61 89 221 q 711 39 635 39 l 800 39 q 1133 128 961 39 q 1300 400 1300 211 l 1289 478 q 1122 344 1185 374 q 1017 278 1086 278 l 1006 278 q 789 372 892 278 l 778 394 q 617 328 693 328 l 572 328 q 383 578 383 372 l 383 606 q 667 1028 383 871 l 750 1044 l 800 1044 q 950 894 906 1044 l 956 894 q 1006 1033 993 1033 l 1083 1033 l 1094 1022 q 1017 717 1017 744 q 1278 556 1113 717 l 1278 544 l 1283 544 q 1372 856 1372 663 q 1022 1344 1372 1214 q 844 1372 926 1372 l 756 1372 q 167 1000 383 1372 q 89 656 89 850 m 483 556 l 483 511 q 589 367 503 367 l 633 367 q 750 422 676 367 q 711 544 711 489 q 911 733 711 678 l 922 833 q 828 1000 922 946 l 794 1011 l 744 1011 q 489 639 618 1011 l 483 556 m 1006 700 q 944 444 944 479 q 1006 367 954 367 l 1056 367 q 1089 406 1089 367 q 1056 472 1089 424 l 1056 483 q 1133 394 1133 429 q 1267 517 1163 394 l 1267 528 q 1061 689 1219 632 l 1006 700 m 767 528 l 767 483 l 772 456 q 900 683 853 540 l 894 683 q 767 528 767 647 m 850 494 l 794 406 q 972 300 854 300 q 1044 322 1001 300 l 1044 328 q 878 394 915 328 q 856 494 856 460 l 850 494 z "},"A":{"ha":1706,"x_min":101,"x_max":1982,"o":"m 1092 1469 l 1150 1469 q 1542 1193 1414 1469 q 1576 990 1576 1090 q 1542 594 1567 744 q 1665 510 1665 547 l 1650 500 l 1646 500 q 1542 564 1582 564 l 1542 560 q 1513 307 1522 482 q 1690 -14 1513 119 l 1764 -43 q 1789 40 1782 -17 l 1799 40 l 1808 31 q 1789 -53 1808 -4 l 1794 -53 l 1839 -62 q 1928 -18 1928 -62 l 1922 15 l 1928 21 l 1932 21 q 1982 -33 1972 21 q 1903 -108 1982 -87 q 1760 -78 1856 -108 q 1685 -108 1760 -94 l 1636 -108 q 1374 243 1436 -108 l 1374 367 q 1393 554 1374 447 l 1219 494 q 700 0 1076 0 l 656 0 q 171 332 364 0 q 101 643 101 492 q 478 1242 101 1028 q 750 1292 560 1278 q 1092 1469 888 1469 m 779 1282 q 1051 1153 889 1282 q 1175 915 1143 1050 q 1269 890 1246 890 l 1319 1010 l 1333 1010 l 1339 1004 l 1343 1004 l 1294 876 l 1314 876 q 1432 1049 1354 1000 l 1463 1064 q 1393 1272 1463 1140 q 1121 1431 1276 1431 l 1051 1431 q 779 1282 903 1431 m 142 614 q 339 164 142 350 l 344 164 q 324 263 324 222 q 453 506 324 401 q 418 643 418 579 l 418 664 q 447 772 428 772 l 458 772 l 447 674 l 447 653 q 472 525 447 590 q 685 599 594 599 l 706 599 q 893 436 893 567 l 893 426 l 889 392 l 893 392 q 1007 481 964 429 l 1007 485 q 922 540 975 485 l 943 560 q 1032 510 990 510 q 1121 693 1121 622 q 1001 664 1060 664 l 963 664 q 685 886 790 664 q 661 1029 661 963 q 719 1257 661 1133 l 715 1257 q 215 925 408 1257 q 142 614 142 785 m 760 1257 q 690 1049 690 1143 l 690 1014 q 878 713 690 810 q 947 693 918 693 l 953 693 l 953 697 q 899 772 899 713 l 899 782 q 968 886 899 833 l 972 886 q 943 811 943 843 l 943 782 q 1042 713 943 713 l 1086 713 q 1146 772 1139 713 l 1146 881 q 1051 906 1138 900 l 992 906 q 1057 931 992 921 l 1126 931 l 1131 925 l 1136 925 l 1136 935 q 1001 1158 1131 1018 q 760 1257 860 1257 m 1229 529 l 1235 529 q 1399 594 1399 576 q 1463 1029 1463 958 l 1457 1029 q 1294 743 1356 943 l 1229 529 m 1181 876 l 1181 871 l 1185 767 q 1244 846 1199 774 l 1244 851 l 1181 876 m 1101 510 l 1106 510 q 1185 550 1185 510 l 1304 861 q 1269 842 1290 842 q 1175 722 1269 818 q 1101 510 1140 578 m 482 519 q 617 382 482 465 q 719 357 664 357 l 769 357 q 843 376 843 363 l 843 421 q 719 564 843 528 l 661 574 q 482 519 572 574 m 453 494 q 368 303 368 404 q 557 50 368 117 q 665 35 617 35 l 700 35 q 1022 203 878 35 q 1161 485 1097 315 l 1156 485 q 1047 446 1072 485 q 854 326 951 353 q 740 228 788 228 q 631 199 683 199 l 621 199 q 517 297 517 215 q 572 376 517 324 q 453 494 546 376 m 582 367 q 557 307 557 325 q 651 218 588 218 l 665 218 q 824 322 769 218 l 735 322 q 582 367 663 322 m 1513 168 l 1513 164 q 1660 -78 1536 -78 l 1704 -78 l 1739 -68 q 1517 168 1571 31 l 1513 168 z "},"B":{"ha":1739,"x_min":78,"x_max":2133,"o":"m 1025 1469 l 1089 1469 q 1514 1293 1281 1469 q 1635 1347 1575 1339 l 1644 1347 q 1733 1333 1733 1347 l 1733 1324 l 1728 1318 l 1728 1314 l 1694 1318 l 1654 1318 q 1533 1269 1586 1318 q 1689 971 1689 1126 q 1518 722 1689 790 l 1518 718 q 1640 488 1640 617 l 1631 390 q 1728 210 1674 361 q 1943 54 1800 96 l 1992 44 q 2079 88 2079 44 l 2075 122 l 2079 126 l 2085 126 q 2133 74 2124 126 q 2056 0 2133 19 q 1625 347 1804 0 q 1582 235 1617 347 q 1308 10 1451 10 l 1274 10 q 1147 156 1147 10 l 1147 171 l 1151 206 q 722 6 953 6 l 567 6 q 336 122 461 6 q 78 654 78 321 q 464 1225 78 1040 q 596 1274 596 1264 q 1025 1469 785 1469 m 629 1279 l 629 1274 l 742 1274 q 1113 1015 967 1274 q 1147 893 1139 953 l 1157 893 q 1206 1103 1206 1007 l 1186 1231 l 1192 1235 l 1196 1235 q 1235 1093 1225 1222 q 1181 883 1235 999 l 1254 860 q 1479 1274 1319 1128 q 1089 1440 1293 1440 l 1019 1440 q 629 1279 817 1440 m 532 1040 l 532 992 q 767 703 532 796 l 815 699 l 903 699 q 889 747 889 724 l 889 757 q 957 860 889 808 l 961 860 q 932 786 932 817 l 932 757 q 951 713 932 735 q 1122 835 1024 736 l 1122 864 q 1040 879 1076 879 l 981 879 q 1044 903 981 893 l 1113 903 l 1113 908 q 986 1142 1103 1015 q 728 1244 868 1244 q 576 1201 576 1244 q 532 1040 532 1136 m 1504 1244 q 1372 918 1404 1121 q 1264 415 1328 632 q 1421 474 1336 474 l 1450 474 l 1514 464 l 1524 576 q 1474 713 1524 653 l 1440 708 l 1415 708 q 1376 742 1376 711 q 1415 767 1376 761 l 1479 747 q 1567 986 1567 836 l 1567 1054 q 1504 1244 1567 1154 m 122 664 l 122 635 l 117 629 l 122 625 l 122 586 q 336 156 122 347 l 336 161 q 322 244 322 210 q 449 488 322 375 q 396 664 396 553 l 396 679 q 419 776 401 772 l 429 776 l 435 771 l 439 771 l 425 679 l 425 649 q 468 503 425 579 q 678 576 589 576 l 697 576 q 883 410 883 546 q 1099 664 1026 482 l 1099 674 q 1019 654 1063 654 l 990 654 q 932 679 968 654 q 879 669 913 669 l 819 669 q 526 883 631 669 q 503 1011 503 939 l 503 1050 q 557 1221 503 1126 l 551 1221 q 268 1031 407 1179 q 122 664 122 865 m 1161 844 l 1157 728 l 1161 713 q 1122 600 1153 713 q 899 367 1049 449 q 849 307 869 367 q 625 181 757 181 l 615 181 q 513 278 513 197 q 581 361 513 317 l 581 351 q 551 288 551 310 q 644 200 582 200 l 658 200 q 829 342 783 200 l 829 347 q 751 338 808 338 l 707 338 q 586 367 647 338 l 581 361 q 513 410 581 369 q 458 474 458 464 l 454 474 q 365 283 365 393 q 488 64 365 138 q 635 35 556 35 l 697 35 q 1231 781 1038 35 l 1244 821 l 1161 850 l 1161 844 m 986 699 l 986 693 l 1019 689 l 1060 689 q 1108 703 1108 689 q 1122 790 1122 753 q 986 699 1018 699 m 1181 747 l 1192 747 l 1192 742 l 1176 728 l 1171 728 l 1181 747 m 478 499 l 478 493 q 688 371 571 371 l 742 371 l 835 386 l 835 400 q 713 542 835 506 l 654 551 q 478 499 567 551 m 1176 176 l 1176 142 q 1250 49 1176 72 l 1269 49 q 1504 429 1401 49 q 1435 444 1471 444 l 1411 444 q 1181 225 1253 444 l 1176 176 z "},"C":{"ha":1563,"x_min":128,"x_max":1829,"o":"m 810 1469 l 867 1469 q 1221 1315 1074 1469 l 1221 1310 l 1225 1310 q 1379 1392 1318 1392 l 1418 1392 q 1535 1169 1535 1363 l 1535 1165 q 1404 754 1535 965 q 1457 575 1457 674 q 1379 276 1457 457 q 1506 58 1419 122 q 1689 -18 1592 -4 q 1776 25 1776 -18 l 1771 58 l 1776 64 l 1781 64 q 1829 10 1819 64 q 1751 -61 1829 -42 q 1394 165 1551 -61 q 1350 238 1394 178 q 1157 15 1338 172 q 1346 -187 1204 -90 l 1346 -192 l 1326 -217 q 1114 -3 1192 -118 l 1114 1 l 1061 1 q 814 286 893 1 l 804 363 l 683 363 l 679 368 l 674 368 l 674 363 l 683 306 q 500 146 683 178 l 481 146 q 151 358 289 146 q 128 479 128 440 q 282 692 128 624 q 249 894 249 783 q 615 1431 249 1250 q 810 1469 715 1469 m 288 865 q 311 706 288 804 l 369 711 l 432 711 l 504 706 l 504 696 l 461 696 q 326 672 396 696 q 432 538 393 538 q 597 469 597 503 q 660 397 614 460 l 804 388 l 819 522 q 611 672 785 601 l 611 682 q 824 571 674 678 l 829 571 q 901 832 829 625 l 896 832 q 775 976 819 864 q 746 1117 756 1035 l 751 1117 l 746 1122 q 925 1417 746 1328 l 964 1426 l 964 1431 l 892 1436 l 824 1436 q 389 1185 583 1436 q 288 865 288 1040 m 761 1126 l 761 1103 q 921 871 761 936 q 1090 1156 967 989 q 1007 1185 1063 1185 q 935 1122 953 1185 l 935 1107 l 925 1107 l 925 1126 q 1013 1233 925 1233 q 1100 1169 1057 1233 l 1201 1286 q 1017 1378 1132 1378 q 785 1228 863 1378 q 761 1126 761 1182 m 1258 1267 q 1326 1140 1294 1221 l 1322 1136 l 1317 1136 l 1322 1132 l 1322 1122 l 1313 1113 l 1297 1113 q 1239 1243 1297 1151 l 1229 1243 l 1138 1083 l 1153 1039 q 1075 842 1153 933 q 1017 744 1017 814 q 950 431 983 650 l 954 431 q 1085 499 1085 468 q 1293 803 1154 803 l 1317 803 l 1356 793 l 1360 890 l 1360 918 q 1326 1078 1360 1000 l 1326 1083 l 1336 1083 q 1394 861 1394 971 l 1399 861 q 1490 1238 1490 1081 q 1414 1372 1472 1372 l 1394 1372 q 1258 1267 1332 1372 m 1128 1058 l 1061 890 q 1133 1035 1133 950 l 1133 1058 l 1128 1058 m 1114 513 l 1118 513 q 1346 769 1311 658 l 1322 774 l 1293 774 q 1114 513 1183 774 m 1375 725 q 1108 460 1318 633 l 1100 319 q 1143 44 1100 181 l 1147 44 q 1313 261 1258 133 q 1394 643 1394 454 q 1375 725 1388 725 m 171 431 q 393 175 171 251 l 471 169 q 635 319 635 199 l 635 368 q 533 407 635 374 q 403 499 467 446 l 399 499 q 356 426 356 464 q 383 368 356 410 l 383 358 q 317 450 317 400 q 379 528 317 497 q 297 658 303 624 q 171 431 171 582 m 438 518 q 621 407 544 419 q 451 518 572 518 l 438 518 m 954 392 q 1081 140 1004 313 l 1085 140 l 1085 146 q 1061 335 1061 231 l 1071 446 l 1065 446 l 954 392 m 935 335 l 935 247 q 1036 29 935 69 l 1090 29 l 1090 35 q 940 335 1032 136 l 935 335 m 819 68 q 960 6 893 68 l 954 6 q 857 35 906 35 l 829 35 q 732 -32 732 35 l 732 -61 q 761 -133 732 -92 l 756 -133 q 689 -32 689 -83 l 689 -22 q 785 68 689 43 l 819 68 m 969 -3 l 974 -3 l 988 -18 l 988 -22 l 979 -22 l 969 -3 m 1108 -86 q 1211 -124 1174 -86 l 1211 -129 l 1153 -119 l 1133 -119 q 901 -178 1096 -119 l 843 -178 q 781 -153 781 -168 l 839 -153 q 1081 -86 881 -153 l 1108 -86 z "},"D":{"ha":1726,"x_min":86,"x_max":2161,"o":"m 1007 1469 l 1081 1469 q 1521 1281 1322 1469 q 1676 1333 1619 1333 l 1715 1333 q 1744 1319 1744 1331 l 1744 1304 l 1676 1304 q 1546 1251 1607 1304 q 1706 815 1706 1072 l 1706 747 q 1651 446 1706 607 q 1739 247 1688 432 q 1953 58 1806 110 l 2021 43 q 2108 88 2108 43 l 2103 121 l 2108 126 l 2113 126 q 2161 72 2151 126 q 2083 0 2161 19 q 1710 253 1869 0 q 1667 364 1667 340 l 1671 364 q 1638 413 1653 407 q 1269 14 1469 14 l 1235 14 q 1119 150 1140 14 l 1124 189 l 1124 199 q 721 14 938 14 l 658 14 q 372 111 493 14 q 86 683 86 324 q 567 1294 86 1133 q 672 1353 614 1294 q 1007 1469 838 1469 m 672 1310 l 682 1310 q 1143 989 1029 1310 l 1163 901 l 1167 901 q 1215 1115 1215 1039 l 1196 1236 l 1201 1242 l 1211 1242 q 1244 1106 1233 1242 q 1192 892 1244 1011 l 1260 874 l 1260 878 q 1414 1174 1317 1047 l 1501 1261 q 1081 1450 1310 1450 l 1017 1450 q 672 1310 826 1450 m 528 1018 q 765 708 528 799 l 833 699 l 890 699 l 915 703 q 896 761 896 736 l 896 771 q 964 874 896 822 l 968 874 q 939 800 939 831 l 939 771 q 964 718 939 753 q 1124 844 1032 742 l 1124 874 q 1046 892 1124 889 l 988 892 q 1051 917 988 907 l 1119 917 q 978 1183 1119 1032 q 721 1275 857 1275 l 633 1275 q 538 1086 572 1213 l 528 1018 m 119 654 q 353 160 119 360 l 353 165 q 333 263 333 222 q 454 500 333 389 q 392 683 400 572 q 421 806 406 776 l 450 796 q 431 699 431 747 l 431 683 q 483 524 431 596 l 489 524 q 688 592 600 592 l 707 592 q 890 436 890 558 q 1100 683 1036 518 l 1094 683 q 1026 669 1063 669 l 997 669 l 954 683 q 876 669 922 669 l 828 669 q 528 878 647 669 q 499 1024 499 951 q 576 1261 499 1121 l 571 1261 q 193 946 296 1160 q 119 654 119 804 m 1269 432 l 1274 432 q 1472 519 1383 519 q 1599 490 1510 519 q 1647 829 1647 671 q 1521 1232 1647 1053 q 1400 1004 1433 1140 l 1269 432 m 1172 854 q 1153 728 1163 843 l 1157 732 l 1167 732 q 1114 606 1146 718 q 890 383 1032 433 q 633 199 793 199 l 624 199 q 522 296 522 215 q 590 378 522 333 l 590 368 q 561 306 561 326 q 653 218 592 218 l 668 218 q 838 358 792 218 l 838 364 l 765 358 l 717 358 q 460 490 582 358 q 376 300 376 400 q 528 68 376 138 q 643 49 582 49 l 668 49 l 672 43 l 678 49 l 707 49 q 1211 747 1031 49 q 1240 839 1240 813 l 1172 858 l 1172 854 m 1007 708 l 1007 703 l 1075 703 q 1114 738 1114 703 l 1124 790 q 1007 708 1025 708 m 1186 761 l 1196 761 l 1196 757 l 1182 742 l 1176 742 l 1186 761 m 489 514 q 701 393 582 393 l 746 393 q 843 417 838 400 q 721 558 843 522 l 663 568 q 489 514 576 568 m 1157 160 l 1157 136 q 1244 43 1175 43 l 1283 43 q 1594 456 1446 43 l 1589 456 q 1482 481 1519 481 l 1449 481 q 1192 282 1310 481 q 1157 160 1157 222 z "},"E":{"ha":1807,"x_min":94,"x_max":1971,"o":"m 1014 1469 l 1071 1469 q 1617 1331 1163 1469 q 1756 1311 1713 1311 l 1822 1311 q 1942 1383 1919 1311 l 1942 1422 l 1938 1446 l 1942 1450 l 1957 1450 q 1971 1413 1971 1447 l 1971 1407 q 1789 1192 1971 1254 l 1736 1188 l 1707 1188 q 1511 1221 1654 1188 q 1339 751 1404 1140 l 1431 765 l 1474 765 q 1593 679 1593 739 q 1578 656 1589 656 l 1560 656 q 1531 708 1553 656 q 1464 738 1500 738 l 1454 738 q 1329 708 1329 729 q 1306 421 1306 604 q 1406 153 1306 268 l 1492 149 q 1742 297 1671 149 l 1746 335 l 1746 350 l 1722 374 q 1656 350 1679 350 l 1646 350 q 1583 426 1597 350 l 1583 440 q 1660 507 1583 494 l 1674 507 q 1769 368 1769 482 l 1769 331 q 1583 57 1769 154 q 1621 43 1583 47 q 1707 86 1707 43 l 1703 119 l 1707 125 l 1713 125 q 1760 72 1750 125 q 1683 0 1760 19 q 1535 39 1613 0 l 1488 33 l 1431 33 q 1090 182 1308 33 q 721 47 886 47 l 654 47 q 181 358 382 47 q 94 694 94 508 l 94 708 q 449 1288 94 1088 q 703 1344 546 1331 q 1014 1469 824 1469 m 736 1340 q 1076 1163 926 1340 q 1167 924 1143 1075 l 1263 900 q 1439 1206 1318 1079 l 1478 1240 q 1085 1393 1375 1272 q 971 1417 1001 1417 l 922 1417 q 736 1340 818 1417 m 133 679 q 367 186 133 390 l 372 186 q 349 292 349 244 q 644 613 349 514 l 697 618 l 717 618 q 899 464 899 585 q 1100 708 1038 540 q 1033 694 1068 694 l 1004 694 l 951 708 q 860 694 899 694 q 578 943 660 694 l 568 1029 l 568 1063 q 660 1311 568 1189 l 654 1311 q 367 1188 472 1276 q 133 679 133 969 m 601 1058 l 601 1043 q 799 732 601 811 l 842 728 l 918 728 l 903 785 l 903 794 q 971 894 903 844 l 975 894 q 946 824 946 854 l 946 794 l 965 747 q 1028 800 1000 763 l 1028 851 q 1047 886 1028 878 l 1067 886 q 1085 847 1081 886 q 1061 800 1085 815 q 1110 747 1061 779 l 1114 747 q 1133 871 1133 822 l 1133 900 q 1051 914 1089 914 l 994 914 q 1057 938 994 929 l 1124 938 l 1128 933 l 1133 933 q 951 1249 1133 1093 q 765 1311 847 1311 l 697 1311 q 601 1058 601 1193 m 1167 886 q 1153 751 1167 810 l 1157 751 l 1171 757 q 1153 742 1171 742 l 1153 728 l 1171 728 l 1206 722 l 1243 861 l 1167 886 m 1190 785 l 1200 785 l 1200 781 l 1186 765 l 1181 765 l 1190 785 m 999 738 l 999 732 l 1033 728 l 1081 728 q 1047 765 1047 756 l 1042 765 l 999 738 m 1138 699 q 946 446 1082 525 q 869 364 900 446 q 1024 288 969 301 q 1196 694 1113 436 l 1138 699 m 392 331 q 564 90 392 154 l 644 82 l 669 82 l 674 76 l 678 82 l 703 82 q 994 249 858 82 q 846 335 868 335 q 707 239 815 272 l 644 229 l 635 229 q 535 325 535 246 q 607 421 535 354 l 611 421 q 707 407 678 421 l 713 411 l 736 411 q 851 436 779 411 l 851 446 q 731 583 851 549 l 674 593 q 392 364 458 593 l 392 331 m 1253 421 q 1143 235 1238 358 q 1378 158 1283 158 q 1257 421 1257 324 l 1253 421 m 808 393 l 808 388 l 846 378 l 846 393 l 851 397 l 846 401 l 808 393 m 588 378 l 574 335 q 664 249 603 249 l 678 249 q 832 350 779 249 q 717 374 760 374 l 621 374 l 588 378 z "},"F":{"ha":1440,"x_min":94,"x_max":2017,"o":"m 1042 1469 l 1103 1469 q 1635 1328 1221 1469 q 1790 1304 1706 1310 q 1997 1418 1910 1304 q 2017 1404 2017 1411 q 1678 1215 1881 1215 l 1654 1215 l 1546 1225 q 1390 994 1439 1146 l 1333 763 l 1339 763 l 1428 772 q 1522 749 1503 763 l 1508 731 l 1424 744 q 1329 711 1329 744 l 1263 457 l 1263 424 q 1526 51 1263 140 l 1574 43 q 1658 85 1658 43 l 1654 118 l 1658 122 l 1664 122 q 1711 71 1701 122 q 1635 0 1711 19 q 1296 207 1447 0 q 1225 372 1226 325 l 1221 372 q 735 57 1067 57 l 660 57 q 288 231 446 57 q 94 688 94 418 l 94 707 q 471 1267 94 1088 q 683 1314 624 1314 q 1042 1469 826 1469 m 721 1314 l 721 1310 l 731 1310 q 1131 1032 994 1310 q 1168 914 1158 924 l 1258 886 q 1503 1233 1301 1074 l 1503 1239 q 1075 1404 1365 1279 l 985 1418 l 933 1418 q 721 1314 828 1418 m 688 1286 q 599 1040 599 1186 q 819 731 599 808 l 858 725 l 904 725 l 904 731 q 876 786 876 739 l 876 796 q 943 894 876 844 l 947 894 q 919 824 919 854 l 919 796 q 951 739 935 739 q 1028 800 992 757 l 1022 843 q 1056 894 1029 894 l 1075 881 l 1075 847 l 1065 800 q 1103 754 1079 767 l 1113 754 l 1126 890 q 1022 914 1072 914 l 967 914 q 1028 938 967 928 l 1069 938 q 1121 928 1103 938 l 1121 932 q 1013 1164 1121 1032 q 688 1286 889 1286 m 132 674 q 349 207 132 399 l 349 213 q 331 301 331 256 q 457 538 331 435 q 406 715 406 626 q 429 829 413 825 q 453 810 450 819 q 433 711 433 765 q 486 556 433 617 q 674 622 582 622 l 693 622 q 872 457 872 594 q 1099 715 1011 525 l 1099 725 q 1004 697 1050 697 l 975 697 q 951 707 951 697 l 896 701 l 858 701 q 585 938 676 701 l 571 1040 q 646 1281 571 1149 l 640 1281 q 315 1121 511 1281 q 193 938 193 971 q 132 674 132 819 m 1164 876 l 1164 815 l 1160 792 l 1168 782 q 1144 735 1153 764 l 1197 731 q 1239 853 1239 810 l 1164 876 m 1042 772 l 999 731 l 1056 731 l 1079 735 l 1042 772 m 1140 707 q 943 438 1071 510 l 858 400 q 703 260 778 260 q 622 240 667 240 l 613 240 q 514 335 514 256 q 579 414 514 371 l 579 406 q 551 344 551 365 q 640 260 581 260 l 656 260 q 819 396 775 260 l 796 390 l 717 390 q 463 528 581 390 q 372 339 372 447 q 542 104 372 167 q 650 89 589 89 l 703 89 q 1140 579 964 89 l 1192 701 l 1140 707 m 490 546 q 703 424 581 424 l 744 424 q 825 443 825 429 l 825 453 q 707 589 825 554 l 650 599 q 490 546 554 599 z "},"G":{"ha":1804,"x_min":56,"x_max":1871,"o":"m 858 1461 l 908 1461 q 1354 1290 1171 1461 q 1575 1421 1485 1421 l 1594 1421 q 1696 1306 1674 1421 l 1696 1265 q 1569 935 1696 1147 q 1815 549 1672 688 q 1871 528 1871 540 l 1861 518 q 1610 744 1779 518 l 1540 885 l 1535 885 q 1444 754 1514 842 l 1469 729 l 1465 729 l 1435 744 q 1179 508 1329 606 q 1244 463 1199 463 q 1364 539 1297 463 q 1285 564 1301 539 l 1344 564 q 1465 608 1403 564 q 1590 639 1529 639 q 1731 593 1686 639 l 1731 589 l 1671 599 l 1650 599 q 1515 549 1547 583 q 1385 222 1411 401 l 1385 182 q 1665 -214 1385 -119 l 1715 -224 q 1806 -178 1806 -224 l 1800 -143 l 1806 -139 l 1811 -139 q 1861 -193 1851 -139 q 1781 -268 1861 -249 q 1410 -33 1572 -268 q 1354 92 1354 65 l 1350 92 q 1093 -519 1263 -367 q 732 -656 935 -656 l 657 -656 q 131 -319 329 -656 q 56 -3 56 -164 q 467 574 56 401 l 467 578 q 351 910 351 717 q 657 1390 351 1208 q 858 1461 788 1461 m 653 1171 q 883 904 653 983 l 964 900 q 1133 1054 1133 929 l 1133 1081 q 978 1261 1133 1211 l 949 1261 q 843 1165 843 1240 q 874 1106 843 1149 l 874 1094 q 803 1190 803 1139 q 908 1281 803 1261 l 918 1281 q 1139 1165 1043 1281 q 1183 1065 1172 1111 l 1189 1065 q 1324 1265 1217 1133 q 968 1426 1140 1426 l 913 1426 q 682 1306 742 1426 q 653 1171 653 1231 m 1404 1225 q 1544 975 1544 1000 l 1550 975 q 1650 1300 1650 1171 l 1650 1325 q 1594 1390 1650 1390 l 1575 1390 q 1404 1225 1501 1390 m 386 874 q 501 593 386 726 l 507 593 q 667 614 614 614 l 718 614 q 1033 483 899 614 q 1114 518 1111 507 q 1079 658 1079 596 l 1079 714 q 1114 914 1079 790 l 1108 914 q 993 874 1051 874 l 974 874 q 632 1094 775 874 q 607 1221 607 1179 q 638 1336 607 1271 q 386 874 386 1165 m 1379 1181 q 1208 758 1224 868 l 1214 758 q 1294 794 1271 794 l 1324 794 q 1414 774 1354 794 l 1519 925 q 1379 1181 1417 1136 m 1233 689 l 1233 658 l 1249 603 q 1394 749 1321 658 l 1394 758 l 1335 758 q 1233 689 1233 758 m 1479 719 l 1485 719 l 1500 704 l 1500 699 l 1490 699 l 1479 719 m 1183 674 l 1174 564 l 1174 549 q 1239 599 1233 585 q 1183 674 1210 628 m 532 558 l 532 553 q 813 453 685 453 l 888 453 q 999 468 939 453 l 999 474 q 728 583 881 583 l 672 583 q 532 558 610 583 m 1249 433 l 1233 433 q 1129 488 1193 433 l 1058 458 q 1169 167 1169 332 q 893 -289 1169 -142 q 747 -319 821 -319 l 703 -319 q 386 -53 479 -319 l 382 22 l 401 122 l 417 122 l 422 117 l 426 117 l 417 26 q 632 -279 417 -200 l 678 -283 l 732 -283 q 1074 -43 925 -283 q 1124 147 1124 49 l 1124 207 q 1018 449 1124 338 q 853 418 915 418 l 813 418 q 497 543 660 418 q 100 -22 100 379 q 411 -569 100 -379 q 617 -625 515 -625 l 682 -625 q 1183 -22 1006 -625 q 1469 543 1350 478 l 1475 549 l 1475 553 q 1314 458 1418 553 q 1249 433 1279 433 z "},"H":{"ha":1882,"x_min":85,"x_max":2207,"o":"m 929 1461 l 975 1461 q 1290 1329 1067 1461 q 1439 1293 1376 1293 q 1729 1375 1486 1293 l 1760 1375 l 1769 1364 l 1769 1354 l 1760 1344 l 1739 1344 q 1408 739 1504 1344 l 1408 729 q 1576 785 1567 771 q 1744 1151 1608 933 q 2069 1369 1904 1369 q 2207 1258 2207 1344 l 2207 1253 q 2131 1182 2207 1188 q 2079 1308 2086 1182 l 2060 1324 l 2024 1324 q 1785 988 1919 1324 l 1718 785 q 1871 703 1796 785 q 1840 683 1861 683 q 1708 754 1789 754 l 1708 749 q 1607 317 1607 344 q 1775 -8 1607 115 q 1836 113 1800 24 l 1851 113 q 1861 97 1861 113 q 1800 -24 1851 42 l 1800 -29 q 1942 -75 1872 -64 q 2033 -29 2033 -75 l 2029 7 l 2033 11 l 2039 11 q 2090 -44 2079 11 q 2008 -121 2090 -100 q 1785 -44 1907 -121 q 1699 -79 1733 -79 l 1668 -79 q 1474 174 1535 -79 l 1469 246 q 1561 739 1469 422 l 1397 699 q 1260 261 1385 501 q 726 -8 1081 -8 q 156 357 363 -8 q 85 668 85 507 l 85 699 q 421 1258 85 1063 q 685 1339 607 1339 q 929 1461 794 1461 m 726 1333 l 788 1333 q 1179 1064 1017 1333 l 1219 932 l 1326 901 q 1550 1278 1399 1149 l 1546 1278 l 1418 1258 q 1093 1390 1296 1258 q 971 1425 1021 1425 l 925 1425 q 726 1333 804 1425 m 608 1060 l 608 1024 q 772 739 608 854 q 894 703 836 703 q 975 718 975 710 q 956 779 956 753 l 956 790 q 1026 896 956 843 l 1032 896 q 1001 821 1001 853 l 1001 790 q 1026 739 1011 743 l 1072 775 l 1067 825 q 1103 876 1067 876 q 1128 831 1128 876 q 1113 785 1128 804 q 1174 724 1113 746 l 1174 729 q 1189 881 1189 811 q 1113 917 1189 917 l 1051 917 q 1118 942 1051 932 l 1179 942 l 1179 947 q 1001 1232 1179 1076 q 721 1308 883 1308 l 700 1308 q 608 1060 608 1203 m 125 653 q 400 124 125 325 l 400 128 q 365 256 365 186 q 482 500 365 378 q 415 714 415 583 q 440 815 422 815 l 446 815 l 456 806 l 446 678 q 501 515 446 611 l 507 515 q 736 601 631 601 l 757 601 q 950 464 886 601 l 950 444 q 1153 693 1101 540 l 1149 693 q 1093 683 1129 683 l 1063 683 l 1011 699 q 914 678 965 678 l 874 678 q 604 901 710 678 q 578 1044 578 976 l 578 1049 q 654 1299 578 1188 l 650 1299 q 319 1125 443 1253 q 125 653 125 926 m 1219 892 l 1219 886 l 1225 856 l 1214 739 l 1240 749 l 1210 718 l 1210 714 l 1265 714 l 1317 861 l 1219 892 m 1260 779 l 1271 779 l 1271 775 l 1256 760 l 1250 760 l 1260 779 m 1057 729 l 1057 724 l 1093 718 l 1118 718 l 1118 724 q 1093 749 1104 724 l 1088 749 l 1057 729 m 1194 678 q 1057 449 1183 588 l 940 378 q 803 219 893 264 q 681 189 721 189 l 669 189 q 563 292 563 207 q 629 372 563 331 q 486 485 556 414 q 411 296 411 394 q 593 42 411 110 q 650 32 614 32 l 731 32 q 1179 494 999 32 q 1250 678 1250 658 l 1194 678 m 517 504 l 517 500 q 726 388 618 388 l 788 388 q 899 414 822 388 l 899 418 q 772 565 899 529 l 711 576 q 517 504 593 576 m 635 368 q 604 301 604 324 q 700 210 636 210 l 715 210 q 894 357 846 210 l 894 363 l 797 353 l 746 353 q 635 372 708 353 l 635 368 m 1586 204 l 1586 118 q 1683 -54 1586 -54 q 1754 -24 1722 -54 q 1592 204 1618 106 l 1586 204 z "},"I":{"ha":1486,"x_min":78,"x_max":1744,"o":"m 1739 1461 l 1744 1456 l 1744 1446 l 1656 1393 q 1421 981 1519 1297 q 1363 692 1363 754 q 1529 858 1406 692 l 1539 839 q 1376 667 1475 714 q 1338 593 1338 667 q 1206 240 1279 354 q 1167 188 1167 206 q 1357 -24 1224 40 l 1465 -53 q 1553 -8 1553 -53 l 1549 25 l 1553 31 l 1558 31 q 1607 -24 1597 31 q 1529 -97 1607 -76 q 1142 172 1307 -97 q 729 -8 958 -8 l 661 -8 q 322 124 456 -8 q 78 647 78 319 q 450 1236 78 1019 q 671 1285 572 1285 l 729 1285 q 1043 1153 897 1285 q 1539 1436 1194 1351 q 1739 1461 1674 1461 m 1122 1044 q 1176 883 1144 1013 l 1283 853 q 1642 1422 1403 1217 l 1636 1422 q 1279 1265 1407 1378 q 1122 1044 1135 1114 m 117 657 l 117 593 q 343 143 117 344 l 343 147 q 322 240 322 193 q 446 481 322 369 l 446 486 q 396 633 396 568 l 396 672 q 417 775 396 708 l 431 775 l 436 771 l 440 771 l 426 663 q 469 500 426 594 q 681 574 590 574 l 700 574 q 886 403 886 546 q 1113 667 1054 499 l 1113 676 q 1024 653 1069 653 l 994 653 q 892 740 892 676 l 892 756 q 960 858 892 807 l 965 858 q 936 785 936 815 l 936 756 q 1033 688 936 688 l 1078 688 l 1103 692 q 969 942 969 806 l 969 957 q 1024 1128 969 1032 q 710 1260 889 1260 q 161 874 369 1260 q 117 657 117 749 m 1097 1019 q 1063 903 1067 940 l 1107 903 l 1132 897 l 1132 913 q 1103 1019 1132 951 l 1097 1019 m 1058 878 l 1058 874 q 1113 721 1058 764 l 1122 721 l 1132 864 l 1126 864 l 1058 878 m 1176 843 l 1181 839 l 1181 829 l 1171 726 l 1176 721 l 1167 711 l 1167 692 q 1219 676 1167 676 l 1219 682 l 1269 814 l 1176 843 m 1186 746 l 1196 746 l 1196 740 l 1181 726 l 1176 726 l 1186 746 m 1161 657 l 1161 647 l 1146 457 l 1146 447 l 1151 447 l 1206 643 l 1161 657 m 479 496 q 725 364 565 364 l 744 364 l 838 378 l 838 397 q 715 540 838 504 l 656 550 q 479 496 568 550 m 1093 531 q 872 344 1025 401 q 710 197 789 197 q 626 178 674 178 l 617 178 q 514 275 514 193 q 583 364 514 307 q 460 471 550 364 l 456 471 q 367 281 367 392 q 519 44 367 115 q 642 25 582 25 l 710 25 q 1093 314 944 25 l 1088 374 l 1093 511 l 1097 525 l 1097 531 l 1093 531 m 588 358 q 553 285 553 306 q 646 197 583 197 l 661 197 q 833 333 782 197 l 828 333 l 774 329 l 715 329 q 588 358 663 329 z "},"J":{"ha":1567,"x_min":-140,"x_max":1839,"o":"m 1833 1464 l 1839 1458 l 1839 1442 q 1769 1410 1839 1433 q 1553 1097 1638 1338 q 1435 644 1435 743 q 1607 817 1482 644 l 1624 811 l 1624 806 q 1461 622 1624 740 q 1401 510 1401 622 l 1315 164 q 1461 -142 1315 3 q 1672 -233 1551 -215 q 1769 -185 1769 -233 l 1764 -147 l 1769 -142 l 1774 -142 q 1828 -201 1817 -142 q 1742 -282 1828 -261 q 1461 -169 1611 -282 q 1294 72 1328 -42 q 1214 -142 1286 71 q 976 -471 1140 -308 q 539 -639 760 -639 l 469 -639 q -69 -282 138 -639 q -140 35 -140 -125 q 232 644 -140 419 q 544 719 376 719 q 997 418 838 719 l 1008 386 q 1143 482 1143 432 l 1154 482 l 1154 478 q 1019 353 1083 375 q 1040 197 1040 272 q 739 -282 1040 -124 q 610 -310 658 -310 l 544 -310 q 383 -261 465 -310 l 383 -267 q 653 -428 460 -428 q 788 -407 714 -428 l 788 -417 q 588 -460 657 -460 q 329 -282 401 -460 q 286 -181 314 -192 q 206 40 206 -79 q 232 175 215 175 l 253 164 l 232 46 q 318 -164 232 -74 q 518 138 318 0 q 690 197 597 190 q 890 51 890 165 l 896 19 q 825 -158 896 -53 l 831 -158 q 997 197 997 10 l 997 251 l 988 343 l 976 343 l 949 338 l 949 343 l 943 338 l 939 338 q 819 444 819 353 q 868 553 819 481 q 539 688 736 688 q -53 240 158 688 q -92 14 -92 96 q 221 -542 -92 -340 q 453 -606 339 -606 l 518 -606 q 933 -353 763 -606 l 928 -353 l 890 -374 l 879 -374 q 992 -244 978 -311 q 1278 579 1122 0 l 1272 574 l 1192 574 l 1014 596 l 1003 596 l 997 601 l 896 579 q 1046 633 940 633 l 1079 633 l 1083 628 l 1089 633 l 1171 622 l 1175 622 l 1175 628 q 1014 903 1014 731 q 1607 1426 1014 1263 q 1833 1464 1707 1453 m 1122 817 q 1235 633 1122 674 q 1294 622 1256 622 q 1721 1421 1436 1181 l 1715 1421 q 1381 1275 1556 1399 q 1122 817 1122 1064 m 874 542 l 863 478 l 863 472 q 965 381 863 381 l 976 381 q 874 542 949 464 m 350 -132 l 356 -153 l 350 -158 q 539 -272 350 -253 l 572 -272 l 674 -256 l 674 -250 l 668 -250 l 619 -256 q 518 -164 518 -235 l 518 -158 q 572 -67 518 -125 l 576 -67 l 576 -72 l 556 -136 q 668 -228 556 -200 q 836 -99 769 -228 l 851 -24 q 750 143 851 92 l 636 160 q 410 24 519 160 q 350 -132 350 -71 m 707 -233 l 707 -239 l 711 -239 q 788 -190 772 -210 l 707 -233 z "},"K":{"ha":1778,"x_min":81,"x_max":2146,"o":"m 988 1456 l 1043 1456 q 1431 1249 1201 1456 q 1496 1214 1474 1214 q 1688 1340 1606 1340 l 1722 1340 q 1793 1279 1778 1340 q 1626 1153 1760 1153 l 1586 1153 q 1521 1164 1544 1153 q 1421 886 1421 974 q 1289 388 1339 519 q 750 -15 1115 -15 l 681 -15 q 142 353 349 -15 q 81 650 81 494 l 81 654 q 479 1260 81 1069 q 675 1304 564 1289 q 988 1456 813 1456 m 715 1304 l 756 1304 q 1174 976 1039 1304 q 1214 917 1182 917 q 1264 1017 1251 1011 q 1275 1003 1275 1017 q 1244 907 1275 979 l 1310 886 l 1310 892 q 1440 1149 1353 1029 q 1471 1189 1450 1150 q 1139 1375 1454 1189 q 1007 1410 1071 1410 l 947 1410 q 715 1304 822 1410 m 2015 1350 l 2056 1350 q 2146 1269 2146 1339 q 2065 1199 2146 1208 q 1969 1285 2042 1200 l 1950 1285 q 1713 907 1828 1285 q 1557 735 1660 786 l 1551 735 q 1663 483 1663 638 q 1632 226 1663 396 q 1753 19 1632 147 q 1950 -65 1838 -49 q 2040 -19 2040 -65 l 2035 15 l 2040 19 l 2044 19 q 2096 -35 2085 19 q 2015 -111 2096 -90 q 1663 96 1822 -111 l 1632 151 l 1626 151 l 1622 100 q 1707 -50 1622 -50 l 1738 -50 l 1788 -40 l 1793 -44 l 1793 -60 q 1663 -106 1793 -83 l 1632 -106 q 1481 65 1524 -106 l 1476 111 q 1542 549 1476 156 l 1546 585 q 1511 725 1546 644 l 1486 719 l 1465 719 q 1400 765 1400 728 q 1421 790 1410 789 l 1446 790 q 1521 756 1485 790 q 1667 882 1610 783 q 1869 1289 1782 1246 q 2015 1350 1944 1350 m 1536 1189 l 1572 1183 l 1626 1183 q 1758 1264 1758 1201 l 1758 1289 l 1738 1310 l 1693 1310 q 1536 1189 1615 1310 m 681 1269 q 604 1038 604 1150 q 842 700 604 801 l 892 694 l 957 694 l 982 700 q 963 760 963 735 l 963 771 q 1032 876 963 824 l 1038 876 q 1007 800 1007 832 l 1007 771 q 1038 719 1017 719 q 1164 821 1085 733 l 1164 856 q 1149 896 1164 893 l 1058 896 q 1124 922 1058 911 l 1154 922 l 1154 926 q 1007 1183 1154 1032 q 761 1269 883 1269 l 681 1269 m 121 635 q 439 75 121 278 l 443 75 q 378 242 378 147 q 474 463 378 350 l 474 474 q 408 650 408 546 q 433 790 415 790 l 453 781 q 439 669 439 721 l 439 635 q 499 483 439 549 q 746 585 631 585 l 765 585 q 951 458 888 585 l 957 438 q 1124 654 1097 551 l 1128 660 l 1128 665 l 1068 665 l 1013 679 q 942 665 979 665 l 892 665 q 604 892 721 665 q 579 1038 579 960 l 579 1043 q 640 1264 579 1140 l 635 1264 q 307 1093 490 1264 q 121 635 121 883 m 1229 871 q 1189 710 1189 814 l 1194 710 l 1244 731 l 1179 679 q 1018 413 1138 514 q 926 322 949 378 q 786 201 853 201 q 690 176 786 188 l 681 176 q 574 276 574 193 q 625 353 574 303 l 625 357 q 489 449 586 357 q 424 282 424 383 q 604 31 424 97 l 644 19 l 715 19 q 1260 756 1064 19 l 1294 846 l 1229 871 m 1078 706 l 1078 700 l 1143 700 l 1154 760 l 1149 760 l 1078 706 m 504 468 q 715 368 607 368 l 765 368 q 907 403 824 368 q 781 549 907 511 l 721 558 q 504 468 593 558 m 786 332 l 735 332 l 640 347 q 614 288 614 306 q 710 196 646 196 l 725 196 q 907 353 856 196 l 901 353 q 786 332 854 332 z "},"L":{"ha":1607,"x_min":138,"x_max":1603,"o":"m 894 1461 l 957 1461 q 1288 1331 1121 1461 q 1457 1418 1376 1418 q 1589 1296 1547 1418 q 1603 1199 1603 1261 l 1603 1175 q 1243 492 1603 807 q 1083 394 1174 439 q 1249 74 1083 194 l 1263 69 q 1501 176 1415 69 q 1521 244 1521 208 q 1443 311 1521 263 l 1428 369 q 1496 447 1443 447 l 1515 447 q 1579 346 1579 432 q 1379 21 1579 157 l 1404 15 q 1492 60 1492 15 l 1486 93 l 1492 99 l 1496 99 q 1544 44 1535 99 q 1467 -28 1544 -8 q 1326 1 1421 -28 l 1268 -8 l 1219 -8 q 894 151 1111 -8 q 501 1 725 1 q 274 40 288 13 q 138 249 138 106 q 410 564 138 461 q 317 879 317 703 l 317 893 q 632 1393 317 1206 q 894 1461 764 1461 m 361 840 q 439 574 361 699 l 488 578 l 511 578 q 696 418 696 546 l 696 394 l 690 389 l 690 385 l 803 369 l 879 369 q 1031 821 918 421 l 1031 831 l 1025 831 q 851 879 907 879 l 793 879 q 856 903 793 893 l 899 903 q 1044 865 943 903 q 1161 1175 1044 919 l 1258 1315 q 967 1432 1111 1432 l 904 1432 q 439 1132 635 1432 q 361 840 361 996 m 1321 1286 q 1428 1117 1385 1203 l 1414 1107 l 1404 1107 q 1301 1257 1326 1235 q 1167 846 1215 1051 l 1176 846 l 1225 856 l 1225 850 l 1157 807 l 1147 763 q 1356 922 1289 921 l 1360 918 l 1360 913 q 1301 889 1360 904 q 1089 515 1104 672 l 1083 476 l 1083 428 l 1089 428 q 1506 932 1360 556 q 1550 1218 1550 1072 l 1550 1224 q 1457 1389 1550 1389 q 1321 1286 1401 1389 m 768 860 l 774 860 q 744 788 744 818 l 744 758 q 842 690 744 690 l 871 690 q 972 719 911 690 q 832 656 906 656 l 803 656 q 700 743 700 679 l 700 758 q 768 860 700 808 m 992 749 l 1001 749 l 1001 743 l 986 729 l 982 729 l 992 749 m 453 554 q 638 404 543 443 l 647 404 l 647 408 q 535 540 647 507 l 472 554 l 453 554 m 181 288 q 332 54 181 124 q 258 190 258 118 q 394 365 258 290 l 400 360 l 404 360 l 492 375 q 642 340 571 367 l 647 365 l 647 369 q 419 550 531 408 q 244 453 340 550 q 181 288 181 379 m 1035 360 q 914 171 1006 276 q 1210 74 1100 74 l 1215 74 l 1215 79 q 1089 235 1144 129 q 1040 360 1060 290 l 1035 360 m 681 356 l 671 326 l 832 239 l 879 336 l 865 336 q 681 356 764 336 m 365 292 q 458 206 396 206 l 472 206 q 628 311 581 206 l 628 317 q 515 340 565 340 l 468 340 q 365 292 365 333 m 651 301 q 515 200 600 224 l 439 186 l 429 186 q 326 278 326 203 q 293 206 293 244 l 293 171 q 443 40 293 83 l 488 35 l 501 35 l 506 31 l 511 35 l 535 35 q 813 210 688 35 q 651 301 753 254 z "},"M":{"ha":1889,"x_min":82,"x_max":2178,"o":"m 986 1456 l 1060 1456 q 1447 1188 1347 1456 q 1497 924 1497 1015 l 1503 924 l 1547 939 l 1551 933 l 1551 929 q 1497 910 1551 917 l 1503 860 l 1503 700 l 1507 700 q 1721 1028 1590 868 q 2033 1238 1900 1206 l 2103 1251 l 2108 1247 l 2108 1242 l 1989 1182 q 1810 850 1881 1083 q 1706 418 1710 517 l 1706 378 q 1900 19 1706 135 l 1919 40 l 1925 40 l 1939 25 l 1925 6 l 2033 -24 q 2124 19 2124 -24 l 2118 54 l 2124 60 l 2128 60 q 2178 6 2168 60 q 2099 -69 2178 -49 q 1910 -14 2018 -69 q 1815 -54 1853 -54 l 1775 -54 q 1551 239 1593 -54 l 1551 264 q 1765 1014 1551 572 l 1790 1049 l 1790 1053 q 1563 740 1656 924 l 1408 472 l 1403 472 l 1403 800 l 1399 800 q 1131 253 1263 578 q 708 -10 978 -10 l 674 -10 q 429 40 429 11 q 201 258 369 61 q 82 656 82 442 q 479 1251 82 1053 q 674 1292 594 1292 q 986 1456 808 1456 m 713 1286 l 753 1286 q 1144 1008 1006 1286 l 1185 894 l 1189 894 q 1239 1004 1206 894 l 1254 1004 l 1264 993 l 1224 879 l 1279 864 l 1368 1108 q 1214 1351 1326 1260 q 1025 1415 1111 1415 l 965 1415 q 713 1286 829 1415 m 608 1039 l 608 993 q 801 711 608 811 q 911 690 850 690 q 876 760 876 719 l 876 769 q 946 875 876 822 l 951 875 q 921 800 921 831 l 921 769 q 996 706 921 706 q 1144 819 1061 724 l 1144 869 q 1031 894 1075 894 l 971 894 q 1036 919 971 910 l 1081 919 l 1140 910 q 965 1197 1140 1040 q 753 1263 856 1263 l 718 1263 q 608 1039 632 1263 m 122 661 l 122 636 l 117 631 l 122 626 l 122 586 q 310 174 122 372 l 300 249 q 439 507 300 383 q 400 671 408 567 q 425 781 413 781 l 435 781 l 444 769 l 435 675 q 474 526 435 576 q 663 586 582 586 l 683 586 q 872 422 872 553 l 872 397 l 876 397 q 1131 681 1046 472 l 1135 711 q 1011 665 1067 665 l 971 665 l 965 671 l 961 665 l 886 665 q 603 879 704 665 q 574 1024 583 915 q 643 1247 574 1139 l 643 1251 l 638 1251 q 356 1128 497 1235 q 122 661 122 919 m 1374 1049 q 1308 860 1308 885 l 1364 860 l 1399 864 q 1378 1049 1399 947 l 1374 1049 m 1308 825 l 1299 825 l 1264 665 l 1264 661 l 1269 661 q 1399 844 1306 746 l 1399 850 q 1308 825 1354 825 m 1200 844 q 1179 800 1179 815 l 1179 785 l 1185 750 q 1160 646 1175 750 q 946 372 1092 454 l 847 333 q 703 208 768 208 q 608 183 703 196 l 599 183 q 494 283 494 200 q 564 368 494 322 l 564 358 q 533 293 533 315 q 628 204 565 204 l 643 204 q 813 328 757 204 l 722 328 q 568 372 650 328 l 564 368 q 539 393 564 381 q 444 492 496 429 q 346 289 346 406 q 524 40 346 106 q 649 19 592 19 l 678 19 q 1249 781 1063 19 q 1264 829 1264 797 l 1200 844 m 1060 706 l 1060 700 l 1071 700 q 1144 765 1144 700 q 1060 706 1075 706 m 474 517 q 713 372 569 372 l 763 372 l 822 378 l 822 407 q 697 551 822 515 l 638 561 q 474 517 558 561 m 1681 258 l 1676 204 q 1746 0 1676 47 q 1796 -14 1771 -14 l 1835 -14 l 1879 0 l 1879 10 q 1686 258 1768 67 l 1681 258 z "},"N":{"ha":1889,"x_min":86,"x_max":2268,"o":"m 1096 1461 l 1157 1461 q 1588 1197 1401 1461 q 1817 1293 1726 1293 l 1826 1279 q 1735 1249 1826 1264 q 1599 1167 1671 1232 q 1669 578 1669 1089 l 1669 461 l 1675 461 q 1983 1218 1856 1058 q 2172 1344 2089 1344 l 2192 1344 q 2268 1283 2268 1333 l 2268 1274 q 2213 1218 2260 1218 l 2203 1218 q 2115 1268 2165 1218 q 1715 457 1942 1268 q 1669 360 1669 379 l 1669 340 q 1939 -56 1669 43 l 1949 -56 l 1999 -14 l 2025 -25 l 2025 -35 l 1999 -65 l 1999 -71 q 2096 -25 2096 -71 l 2090 10 l 2096 15 l 2100 15 q 2151 -40 2142 15 q 2071 -117 2151 -96 q 1949 -90 2011 -117 q 1882 -106 1924 -106 l 1842 -106 q 1532 264 1599 -106 q 1522 386 1522 308 l 1522 421 l 1547 974 l 1538 1106 q 1381 746 1422 963 q 1228 264 1301 408 q 767 -4 1054 -4 l 694 -4 q 147 360 353 -4 q 86 660 86 506 q 411 1228 86 1015 q 746 1314 550 1314 l 771 1308 q 1096 1461 907 1461 m 807 1308 q 1090 1167 931 1308 q 1213 939 1183 1060 l 1299 918 l 1299 924 q 1329 994 1322 994 l 1339 994 l 1350 985 l 1324 908 l 1385 893 l 1385 899 q 1528 1147 1415 1013 q 1157 1431 1421 1431 l 1101 1431 q 807 1308 947 1431 m 776 1283 q 679 1025 679 1146 l 679 985 q 893 690 679 792 l 964 679 l 1004 679 l 1056 685 l 1056 694 q 974 782 988 694 l 974 792 q 1046 899 974 844 l 1050 899 q 1019 822 1019 854 l 1019 792 q 1121 721 1019 721 l 1136 721 q 1188 832 1188 733 l 1182 914 l 1147 918 l 1071 918 q 1136 943 1071 933 l 1172 943 l 1172 949 q 1031 1176 1126 1115 q 776 1283 892 1283 m 126 624 q 461 81 126 260 q 386 258 386 157 q 472 472 386 360 q 415 675 415 560 q 442 786 425 783 l 451 786 l 461 776 q 446 685 446 722 l 446 675 q 492 497 446 583 l 503 497 q 756 604 635 604 l 776 604 q 969 431 969 572 q 1163 690 1093 506 l 1151 690 q 1004 650 1074 650 l 964 650 q 654 924 750 650 l 650 1000 l 650 1019 q 736 1279 650 1126 l 721 1279 q 233 989 438 1279 q 126 624 126 828 m 1218 903 l 1218 899 l 1222 792 l 1228 792 l 1279 883 l 1274 883 l 1218 903 m 1308 868 q 1222 740 1281 810 l 1222 736 l 1258 751 q 1207 694 1207 714 q 1031 406 1156 507 q 943 344 943 354 q 796 218 863 218 q 700 193 796 206 l 690 193 q 583 294 583 210 q 619 356 583 317 q 482 457 576 356 q 431 300 431 379 q 624 40 431 108 q 736 25 685 25 l 761 25 q 1182 310 1038 25 q 1365 853 1253 493 l 1360 853 l 1308 868 m 1279 782 l 1289 782 l 1289 776 l 1274 761 l 1268 761 l 1279 782 m 507 482 q 650 375 549 411 l 654 381 q 725 360 654 360 l 776 360 q 918 396 835 360 l 918 421 q 792 568 918 531 l 731 578 q 507 482 599 578 m 639 344 q 624 304 624 324 q 721 213 656 213 l 736 213 q 908 340 853 213 l 903 340 q 796 325 850 325 l 740 325 q 639 344 689 325 m 1694 122 l 1694 117 q 1867 -71 1757 -71 l 1897 -71 l 1897 -65 q 1700 122 1763 -3 l 1694 122 z "},"O":{"ha":1443,"x_min":136,"x_max":1719,"o":"m 689 1465 l 753 1465 q 1108 1311 940 1465 q 1272 1383 1218 1383 q 1397 1239 1378 1383 l 1397 1186 q 1454 989 1454 1132 q 1263 339 1454 729 q 1508 -15 1263 96 l 1581 -31 q 1667 13 1667 -31 l 1661 46 l 1667 51 l 1671 51 q 1719 -1 1710 51 q 1643 -74 1719 -54 q 1306 124 1458 -74 q 1229 282 1229 251 l 1224 282 q 1026 32 1165 135 q 1200 -179 1057 -71 l 1200 -185 l 1190 -194 l 1185 -194 q 993 13 1058 -125 q 944 -1 968 -1 l 921 -1 q 675 325 729 -1 l 675 368 l 613 368 q 169 690 328 368 q 136 893 136 793 l 136 907 q 488 1422 136 1236 q 689 1465 578 1465 m 738 1432 l 738 1426 q 878 1311 796 1407 l 872 1311 q 651 1413 750 1413 q 411 1239 490 1413 q 401 1186 401 1221 l 401 1133 q 531 917 401 1007 q 665 883 603 883 q 790 1051 790 935 l 790 1085 q 681 1219 790 1175 l 675 1219 q 579 1147 579 1219 q 569 1124 579 1124 l 564 1124 l 554 1200 q 636 1264 581 1264 l 642 1264 q 806 1094 732 1264 l 810 1038 l 810 1008 q 724 854 810 897 q 671 844 704 844 l 665 844 q 396 1085 474 844 q 382 1186 382 1136 q 406 1317 382 1251 q 175 888 175 1131 l 175 860 q 454 431 175 581 q 599 397 540 397 l 626 397 q 569 474 569 450 l 574 474 q 675 411 635 415 l 675 417 q 704 608 675 497 l 651 624 q 569 518 592 624 l 569 503 l 560 503 l 554 575 q 626 667 554 639 l 714 653 q 974 1172 797 958 l 940 1239 l 983 1186 l 1089 1292 q 776 1432 943 1432 l 738 1432 m 1147 1268 l 1214 1172 q 1315 1215 1275 1215 l 1364 1206 l 1364 1239 q 1272 1360 1364 1343 q 1147 1268 1147 1324 m 1122 1249 q 1031 1075 1031 1100 q 1050 922 1050 1011 l 1056 922 q 1185 1138 1076 996 l 1132 1249 l 1122 1249 m 1219 1143 q 1286 893 1247 1079 l 1292 893 q 1364 1172 1364 1094 q 1310 1186 1336 1186 q 1219 1143 1274 1186 m 1392 1138 q 1292 825 1392 1074 l 1267 479 l 1267 469 l 1272 469 q 1417 1061 1417 879 l 1401 1138 l 1392 1138 m 1185 1100 q 1031 729 1031 896 l 988 522 l 993 522 q 1253 831 1190 671 l 1253 932 l 1204 1090 l 1185 1100 m 1007 1042 q 839 499 839 597 l 819 436 l 825 436 q 940 503 940 467 l 1007 888 l 1017 1008 l 1013 1042 l 1007 1042 m 1238 749 q 1017 503 1238 706 q 974 431 974 489 l 964 383 q 1013 56 964 199 l 1017 56 q 1185 276 1139 164 l 1214 339 l 1210 383 q 1243 743 1210 517 l 1243 749 l 1238 749 m 810 364 q 931 233 931 307 l 921 233 q 806 321 889 293 l 806 315 l 800 243 q 888 32 800 64 l 906 26 l 935 26 q 983 46 983 33 l 935 214 l 940 214 l 921 339 l 931 446 q 815 388 815 401 l 810 364 z "},"P":{"ha":1613,"x_min":81,"x_max":1758,"o":"m 1018 1461 l 1085 1461 q 1528 1264 1324 1461 q 1692 1317 1618 1317 l 1744 1317 l 1758 1303 l 1744 1288 l 1682 1288 q 1561 1240 1615 1288 l 1561 1235 q 1686 918 1686 1082 l 1686 899 q 1494 572 1686 667 l 1436 563 q 1325 635 1363 563 l 1321 635 q 1244 361 1297 479 q 1354 135 1244 271 q 1557 43 1454 56 q 1643 86 1643 43 l 1638 121 l 1643 125 l 1647 125 q 1696 72 1686 125 q 1619 0 1696 19 q 1272 211 1426 0 q 1225 307 1225 293 l 1215 307 q 936 58 1124 131 q 735 19 824 19 l 715 19 q 442 72 479 19 q 110 457 215 182 q 81 664 81 581 l 81 682 q 518 1269 81 1097 q 672 1340 624 1289 q 1018 1461 835 1461 m 672 1297 l 729 1297 q 1119 1038 974 1297 q 1163 894 1147 971 l 1172 894 q 1219 1092 1219 1000 l 1206 1225 l 1219 1225 q 1249 1086 1240 1225 l 1244 1043 q 1268 889 1268 974 l 1272 889 q 1504 1254 1299 1028 q 1090 1432 1315 1432 l 1004 1432 q 672 1297 817 1432 m 532 1038 l 532 990 q 764 701 532 796 l 854 692 l 917 697 q 897 754 897 731 l 897 764 q 965 865 897 814 l 969 865 q 942 793 942 824 l 942 764 q 965 717 950 719 q 1129 836 1014 717 l 1129 869 q 1047 885 1083 885 l 989 885 q 1051 908 989 899 l 1119 908 q 956 1192 1119 1050 q 696 1269 846 1269 q 585 1201 614 1269 q 532 1038 532 1117 m 119 649 q 360 154 119 357 l 364 154 q 340 260 340 211 q 460 490 340 392 q 397 668 397 582 l 397 711 q 422 793 401 793 l 432 793 l 442 783 q 422 688 432 768 q 485 514 422 582 q 692 586 603 586 l 710 586 q 893 457 833 586 l 893 438 q 1094 678 1040 524 q 1028 664 1064 664 l 999 664 l 946 678 l 874 668 l 821 668 q 547 836 664 668 q 499 994 499 917 l 499 1047 q 581 1250 499 1147 l 576 1250 q 219 990 339 1174 q 119 649 119 828 m 1374 860 q 1475 908 1433 904 l 1485 899 q 1547 928 1517 928 l 1551 922 l 1551 918 q 1494 894 1551 908 q 1344 682 1347 735 q 1403 606 1356 606 l 1426 606 q 1585 918 1518 606 l 1590 985 q 1528 1217 1590 1103 q 1413 994 1454 1147 l 1374 860 m 1225 961 q 1196 885 1225 944 l 1225 875 l 1229 908 l 1229 961 l 1225 961 m 1417 856 q 1364 803 1368 817 l 1364 797 l 1422 856 l 1417 856 m 1172 846 l 1163 832 l 1163 826 l 1153 721 l 1157 726 l 1167 726 q 1119 610 1146 715 q 897 389 1029 439 q 860 322 888 385 q 639 197 768 197 l 629 197 q 528 293 528 213 q 594 375 528 331 l 594 365 q 567 303 567 324 q 657 217 596 217 l 672 217 q 844 365 796 217 l 844 369 l 772 361 l 710 361 q 465 486 578 361 q 383 299 383 397 q 551 63 383 121 q 629 53 572 53 l 686 53 q 1028 269 871 53 q 1210 735 1119 407 l 1219 836 l 1172 851 l 1172 846 m 1008 697 l 1081 697 q 1124 789 1115 697 q 1008 697 1083 749 m 1186 754 l 1196 754 l 1196 750 l 1182 735 l 1176 735 l 1186 754 m 489 500 q 701 394 589 394 l 749 394 q 844 414 790 394 q 725 553 844 518 l 667 563 q 489 500 563 563 z "},"Q":{"ha":1506,"x_min":132,"x_max":1767,"o":"m 703 1456 l 754 1456 q 1115 1304 944 1456 l 1121 1304 q 1282 1375 1204 1375 l 1286 1375 q 1406 1228 1386 1375 l 1406 1204 l 1401 1171 q 1458 976 1458 1110 l 1458 961 q 1258 306 1458 686 l 1258 296 q 1376 82 1258 207 q 1563 1 1456 18 q 1629 44 1629 1 q 1643 78 1643 53 l 1657 82 l 1676 78 l 1681 82 l 1686 82 q 1767 -31 1767 68 q 1596 -274 1767 -214 q 1543 -283 1576 -283 l 1496 -283 q 1249 -50 1336 -283 q 1178 172 1249 4 q 940 -3 1046 -3 q 697 263 765 -3 l 693 268 l 697 272 l 688 358 l 660 358 l 660 353 l 678 292 l 674 292 q 626 358 626 340 q 179 681 340 358 q 132 943 132 872 l 136 943 l 132 947 l 132 951 q 265 1232 154 1064 q 703 1456 463 1456 m 256 1138 l 260 1138 q 374 1165 314 1165 q 531 1142 436 1165 l 531 1132 l 440 1142 q 199 1004 265 1142 q 179 828 179 914 q 299 667 208 728 q 426 624 369 628 q 603 724 603 642 q 617 786 613 724 q 446 967 585 967 q 350 886 350 942 l 374 819 l 369 819 q 313 904 322 854 q 417 990 313 972 q 583 918 474 990 q 660 743 660 814 q 479 596 660 624 l 469 596 q 189 757 328 596 q 342 496 194 656 q 621 392 479 392 l 621 401 q 693 482 621 458 q 826 910 696 597 q 621 1099 765 1036 l 621 1108 l 626 1108 q 850 943 713 1088 q 1092 1289 921 1079 l 1092 1294 q 774 1426 922 1426 l 711 1426 q 256 1138 450 1426 m 1144 1265 l 1211 1156 q 1315 1204 1276 1204 l 1325 1204 q 1372 1189 1347 1204 l 1372 1228 q 1292 1346 1372 1324 l 1268 1346 q 1144 1265 1225 1346 m 1125 1238 q 925 790 951 924 l 974 672 l 978 672 q 1192 1132 1036 953 q 1125 1238 1153 1208 m 1225 1124 q 1278 847 1263 1033 l 1282 847 q 1372 1161 1372 1090 q 1325 1175 1347 1175 l 1301 1175 q 1225 1124 1265 1175 m 1396 1124 q 1272 753 1388 1013 l 1249 406 l 1249 396 l 1253 396 q 1419 1047 1419 868 l 1406 1124 l 1396 1124 m 997 610 l 1021 529 q 1229 767 1183 649 l 1239 910 l 1239 924 q 1206 1099 1239 971 q 997 619 1042 899 l 997 610 m 901 724 l 840 449 l 864 435 q 944 482 944 469 l 958 582 q 901 724 918 711 m 1035 496 q 1168 258 1119 258 l 1182 249 l 1215 311 q 1196 415 1201 351 l 1215 676 q 1035 496 1143 590 m 992 472 q 974 410 974 454 l 974 376 l 964 368 l 954 368 q 940 386 947 368 l 944 429 l 944 435 q 888 406 921 435 l 917 376 l 917 372 l 911 372 q 874 406 885 406 q 817 339 817 393 l 811 278 l 811 268 l 817 268 l 1001 301 l 1088 292 q 997 472 1040 360 l 992 472 m 835 435 l 835 419 l 850 425 l 850 429 l 835 435 m 664 406 l 664 392 l 683 392 l 683 429 l 664 406 m 868 172 l 854 188 l 897 244 l 811 229 l 811 215 q 917 31 811 54 l 958 31 q 1154 206 1060 31 l 1154 211 q 1007 263 1110 263 q 868 172 943 263 m 1229 263 l 1215 235 l 1215 229 q 1401 -103 1279 172 q 1596 -231 1488 -231 q 1710 -121 1690 -231 q 1639 -60 1710 -89 l 1624 -40 q 1282 168 1433 -40 q 1235 263 1235 249 l 1229 263 z "},"R":{"ha":1724,"x_min":78,"x_max":2050,"o":"m 1028 1447 l 1100 1447 q 1546 1267 1314 1447 l 1551 1267 q 1674 1310 1607 1310 l 1717 1310 q 1761 1290 1754 1310 l 1761 1286 l 1757 1281 l 1757 1276 l 1674 1281 l 1664 1281 q 1565 1236 1617 1281 q 1693 972 1693 1101 l 1693 939 q 1521 689 1693 751 l 1517 689 q 1594 507 1594 604 l 1585 356 l 1585 346 q 1693 53 1585 178 l 1697 57 l 1703 57 l 1717 43 l 1713 38 l 1713 33 q 1908 -50 1814 -37 q 1996 -6 1996 -50 l 1992 28 l 1996 33 l 2001 33 q 2050 -21 2040 33 q 1972 -94 2050 -74 q 1717 8 1853 -94 q 1697 18 1717 18 q 1571 -50 1646 -50 l 1542 -50 q 1399 121 1426 -50 l 1399 146 q 1507 590 1399 257 l 1507 600 q 1439 679 1497 679 q 1385 703 1385 686 l 1385 713 q 1424 733 1385 728 l 1488 708 q 1594 978 1594 822 l 1594 1007 q 1536 1213 1594 1119 l 1532 1213 q 1375 885 1439 1121 q 1276 404 1315 526 q 1100 146 1226 268 q 733 -1 932 -1 l 669 -1 q 146 351 353 -1 q 78 660 78 504 q 460 1242 78 1038 l 636 1286 q 1028 1447 807 1447 m 675 1286 l 739 1286 q 1131 1007 1000 1286 l 1164 904 l 1183 899 q 1224 1085 1224 999 l 1203 1213 l 1228 1217 q 1257 1094 1257 1153 l 1257 1056 q 1213 885 1257 997 l 1276 869 q 1488 1217 1313 1025 l 1511 1242 q 1106 1418 1306 1418 l 1032 1418 q 675 1286 842 1418 m 538 997 q 763 699 538 790 l 832 689 l 894 689 l 929 693 l 929 699 q 900 757 900 708 l 900 767 q 968 869 900 818 l 974 869 q 944 796 944 828 l 944 767 q 978 708 960 708 q 1140 821 1047 729 l 1140 865 q 1051 889 1140 885 l 993 889 q 1057 914 993 904 l 1131 914 q 983 1164 1088 1088 q 724 1257 863 1257 l 646 1257 q 538 997 538 1142 m 117 635 q 357 140 117 339 l 357 146 q 332 253 332 204 q 450 488 332 379 q 396 669 396 579 q 421 782 407 782 l 440 782 l 425 664 q 479 507 449 507 q 689 586 588 586 l 710 586 q 894 425 894 553 l 900 425 q 1106 679 1051 517 l 1032 664 l 1003 664 l 968 674 l 890 660 l 836 660 q 524 908 625 660 l 508 1007 q 592 1247 517 1131 l 586 1247 q 283 1061 388 1194 q 117 635 117 861 m 1160 722 l 1164 728 l 1174 728 q 1144 650 1153 714 q 968 410 1089 494 l 881 356 q 719 208 797 208 q 636 189 682 189 l 626 189 q 524 288 524 206 q 586 365 524 325 q 454 478 510 414 q 376 292 376 390 q 572 38 376 106 l 631 33 l 685 33 q 1208 689 1028 33 q 1253 831 1253 794 l 1193 850 q 1160 722 1171 850 m 1032 703 l 1032 699 l 1081 699 q 1131 763 1131 699 l 1131 767 l 1125 767 q 1032 703 1069 718 m 1193 757 l 1203 757 l 1203 753 l 1189 738 l 1183 738 l 1193 757 m 483 497 q 694 375 578 375 l 753 375 q 846 394 785 375 l 846 410 q 724 551 846 515 l 665 561 q 483 497 558 561 m 592 361 q 563 297 563 319 q 656 208 593 208 l 669 208 q 842 351 794 208 l 772 342 l 714 342 q 592 365 674 342 l 592 361 m 1551 258 q 1521 82 1526 156 q 1581 -6 1531 -6 l 1614 -6 q 1683 38 1647 -6 q 1556 258 1581 160 l 1551 258 z "},"S":{"ha":1415,"x_min":85,"x_max":1585,"o":"m 951 1456 l 999 1456 q 1304 1289 1147 1456 l 1289 1275 l 1285 1275 q 1004 1426 1118 1426 l 956 1426 q 681 1256 794 1426 l 732 1256 q 1114 979 960 1256 q 1151 865 1139 865 l 1204 851 q 1481 1303 1299 1303 l 1494 1303 q 1585 1193 1565 1303 l 1585 1156 q 1371 803 1585 996 q 1308 746 1308 763 q 1147 169 1308 358 q 1308 -6 1201 43 q 1428 -44 1357 -33 q 1514 -1 1514 -44 l 1508 32 l 1514 36 l 1518 36 q 1565 -15 1556 36 q 1489 -87 1565 -68 q 1128 150 1285 -87 q 751 -6 964 -6 l 675 -6 q 394 75 486 -6 q 85 622 85 269 l 85 660 q 428 1199 85 993 q 642 1260 574 1257 q 951 1456 788 1456 m 1308 822 l 1342 822 q 1542 1203 1542 1003 q 1494 1275 1542 1275 l 1471 1275 q 1308 832 1339 1275 l 1308 822 m 651 1222 q 614 1060 614 1135 l 614 1056 q 885 718 614 808 l 885 736 q 951 836 885 786 l 956 836 q 928 765 928 794 l 928 736 l 938 703 l 1042 703 q 1094 726 1094 703 l 1104 846 l 1099 846 l 1032 856 l 975 856 q 1038 879 975 869 l 1104 879 l 1104 889 q 922 1160 1104 1025 q 732 1222 822 1222 l 651 1222 m 122 626 l 122 589 q 347 136 122 331 l 351 136 l 351 142 q 332 236 332 197 q 447 465 332 358 q 389 656 389 556 q 422 765 389 718 l 438 751 l 422 642 q 471 483 422 568 q 681 560 588 560 l 699 560 q 881 403 881 529 q 1085 650 1015 479 l 1081 650 q 1014 636 1049 636 l 985 636 q 889 685 956 636 q 632 865 708 739 q 581 1046 581 949 l 581 1079 q 614 1218 581 1133 l 608 1218 q 342 1089 444 1181 q 122 626 122 890 m 1147 826 l 1147 718 q 1181 732 1163 718 l 1185 726 l 1199 808 l 1147 826 m 1138 685 l 1118 450 l 1118 442 l 1114 436 l 1114 432 l 1122 432 q 1181 699 1157 554 l 1175 699 l 1138 685 m 994 675 l 994 669 l 1081 669 l 1081 675 l 994 675 m 481 475 q 681 360 576 360 l 732 360 q 832 379 774 360 l 832 389 q 714 526 832 492 l 656 536 q 481 475 553 536 m 1061 513 q 871 350 1007 404 q 742 203 828 244 q 628 175 665 175 l 618 175 q 518 269 518 190 q 585 350 518 307 l 585 342 q 556 279 556 300 q 647 193 586 193 l 661 193 q 832 342 785 193 l 765 332 l 699 332 q 589 356 647 332 l 585 350 q 451 456 513 394 q 375 275 375 369 q 547 36 375 100 l 642 26 l 694 26 q 1071 303 946 26 l 1061 369 l 1065 503 l 1065 513 l 1061 513 z "},"T":{"ha":1443,"x_min":94,"x_max":2106,"o":"m 1060 1461 l 1110 1461 q 1672 1311 1206 1461 q 1851 1288 1793 1288 l 1872 1288 q 2090 1411 1990 1288 l 2106 1407 q 1882 1213 2056 1283 q 1722 1188 1792 1188 l 1588 1207 q 1429 889 1461 1071 q 1204 217 1349 418 q 1344 32 1256 81 q 1503 -26 1397 -8 q 1593 18 1593 -26 l 1588 53 l 1593 57 l 1597 57 q 1647 3 1638 57 q 1568 -72 1647 -51 q 1179 192 1349 -72 q 767 -1 1021 -1 l 697 -1 q 399 92 507 -1 q 94 669 94 311 l 94 679 q 488 1263 94 1075 q 722 1322 565 1296 q 1060 1461 856 1461 m 757 1317 q 1119 1138 953 1317 q 1210 908 1210 982 l 1235 899 l 1279 1024 q 1304 1008 1304 1017 l 1269 889 l 1319 874 q 1553 1213 1367 1058 l 1553 1217 q 1165 1371 1425 1253 q 990 1411 1094 1401 q 757 1317 853 1411 m 135 640 q 368 151 135 350 l 368 157 q 349 251 349 203 q 478 500 349 385 q 424 664 424 586 l 424 714 q 443 808 424 768 q 468 794 468 803 l 453 694 l 453 669 q 497 515 453 604 q 711 590 621 590 l 732 590 q 921 421 921 558 q 1140 669 1082 511 l 1144 689 l 1140 689 q 950 654 1106 671 l 911 654 q 622 883 728 654 q 597 1028 599 965 q 682 1288 597 1168 l 676 1288 q 393 1168 542 1269 q 135 640 135 954 m 628 1028 q 867 689 628 778 l 936 685 l 981 685 l 981 689 q 926 764 926 704 l 926 774 q 996 879 926 826 l 1000 879 q 971 804 971 835 l 971 774 q 1046 704 971 719 q 1160 819 1160 757 l 1165 883 q 1081 899 1118 899 l 1021 899 q 1085 924 1021 914 l 1154 924 l 1160 918 l 1165 918 l 1165 958 q 1021 1197 1165 1054 q 747 1288 890 1288 l 726 1288 q 628 1028 628 1189 m 1244 854 q 1210 744 1210 785 l 1214 739 q 1179 485 1193 739 l 1179 475 l 1185 475 l 1304 833 l 1244 854 m 1225 764 l 1235 764 l 1235 760 l 1219 744 l 1214 744 l 1225 764 m 1115 704 l 1119 704 q 1150 729 1150 704 q 1115 704 1115 713 m 507 510 q 732 381 600 381 l 747 381 l 751 376 l 757 381 l 782 381 l 871 396 l 871 411 q 747 556 871 518 l 688 565 q 507 510 597 565 m 657 186 l 647 186 q 543 286 543 203 q 613 371 543 325 l 613 361 q 582 296 582 318 q 676 207 614 207 l 692 207 q 867 351 819 207 l 867 356 l 807 351 l 747 351 q 483 490 600 351 q 393 292 393 397 q 547 53 393 124 q 667 32 604 32 l 722 32 q 1125 346 968 32 l 1119 411 l 1125 531 q 936 376 1032 417 q 886 317 907 376 q 657 186 792 186 z "},"U":{"ha":1768,"x_min":128,"x_max":1989,"o":"m 739 1469 l 803 1469 q 1250 1204 1079 1469 q 1296 1008 1296 1106 l 1296 986 q 1196 649 1296 869 l 1200 649 l 1278 675 q 1176 617 1257 649 q 994 178 994 200 l 994 142 q 1022 101 994 114 l 1058 101 q 1190 265 1149 161 q 1460 918 1285 450 q 1851 1246 1646 1246 l 1879 1246 q 1989 1168 1989 1231 l 1989 1140 q 1943 1096 1983 1096 l 1911 1096 q 1883 1196 1888 1096 l 1861 1214 l 1819 1214 q 1432 429 1632 1214 q 1392 279 1392 318 q 1514 74 1431 138 l 1546 56 l 1597 142 l 1619 128 l 1569 42 q 1683 6 1615 15 q 1765 46 1765 6 l 1761 78 l 1765 82 l 1769 82 q 1815 32 1807 82 q 1743 -36 1815 -17 q 1551 28 1651 -36 q 1464 -22 1513 -22 l 1432 -22 q 1268 188 1321 -22 l 1264 251 l 1264 293 q 1049 69 1126 69 l 949 38 l 949 46 l 1008 69 l 1008 74 q 917 192 963 74 l 913 215 q 775 174 826 174 l 767 174 q 671 265 671 189 q 735 343 671 300 l 735 333 q 707 274 707 294 q 794 192 736 192 l 807 192 q 913 229 857 192 l 913 242 q 958 439 913 318 l 958 443 q 908 489 944 472 q 611 361 772 361 l 557 361 q 533 269 539 356 q 707 38 533 99 q 807 24 761 24 l 849 24 l 849 14 l 781 10 l 721 10 q 507 156 579 10 q 493 233 493 201 q 525 365 493 274 l 519 365 q 228 539 386 365 q 128 854 128 675 q 501 1415 128 1194 q 739 1469 638 1469 m 174 854 l 174 826 q 392 439 174 585 q 547 388 481 388 q 763 535 610 489 l 826 543 l 844 543 l 913 529 q 972 599 961 599 l 990 585 l 940 515 l 981 483 l 1054 643 q 1022 703 1022 658 l 1022 713 q 1086 808 1022 760 l 1090 808 q 1063 739 1063 768 l 1063 713 l 1072 681 q 1144 826 1083 681 l 1108 826 q 1158 854 1108 833 q 1208 1068 1208 993 q 1017 1378 1208 1272 q 935 1392 968 1392 q 717 1250 789 1392 q 693 1154 693 1207 l 693 1132 q 876 899 693 960 l 894 894 q 1022 990 1022 940 q 1044 1068 1044 1018 l 1044 1078 q 935 1210 1029 1210 l 926 1210 q 857 1150 875 1210 l 857 1136 l 849 1136 l 849 1154 q 931 1256 849 1256 q 1063 1072 1013 1256 q 903 854 1036 854 l 899 854 q 739 950 814 854 q 679 1146 679 1060 l 685 1146 l 679 1150 q 857 1433 679 1350 l 871 1433 l 871 1438 l 826 1442 l 743 1442 q 224 1090 433 1442 q 174 854 174 967 m 1296 703 l 1304 703 l 1304 699 l 1292 685 l 1286 685 l 1296 703 m 571 393 l 571 388 l 611 388 q 881 503 756 388 l 803 521 q 571 393 656 521 m 1378 224 l 1368 138 q 1438 10 1381 10 l 1464 10 q 1528 42 1503 10 q 1378 224 1439 111 z "},"V":{"ha":1564,"x_min":140,"x_max":2231,"o":"m 789 1461 l 851 1461 q 1268 1219 1119 1461 q 1331 963 1331 1100 q 1292 711 1331 856 l 1297 707 l 1297 701 q 1210 281 1263 621 l 1239 175 l 1243 175 q 1418 649 1243 244 q 1776 1181 1568 953 q 2124 1383 1994 1383 l 2158 1383 q 2231 1317 2231 1376 q 2163 1243 2211 1243 l 2143 1243 q 2061 1311 2113 1243 l 2038 1317 q 1761 1113 1954 1317 q 1268 126 1385 663 q 1457 -24 1317 29 l 1524 -37 q 1611 6 1611 -37 l 1607 39 l 1611 44 l 1617 44 q 1664 -8 1654 44 q 1588 -82 1664 -62 q 1258 97 1419 -82 q 1219 15 1250 15 q 1157 131 1185 60 q 949 25 1000 25 l 949 35 q 1142 165 1043 56 q 1108 343 1108 261 l 1108 378 q 1147 639 1108 475 l 1103 643 q 1007 465 1083 557 q 1021 401 1021 442 q 900 208 1021 300 q 764 169 814 169 l 754 169 q 653 267 653 186 l 658 290 l 604 290 q 508 306 543 290 l 508 286 q 663 35 508 101 q 799 10 733 10 l 842 10 l 842 0 l 769 -4 l 707 -4 q 479 150 556 -4 q 464 232 464 199 l 479 315 q 261 460 411 315 q 140 793 140 615 l 140 818 q 557 1413 140 1194 q 789 1461 689 1461 m 183 808 q 474 343 183 486 l 489 339 q 701 538 540 467 q 818 561 774 561 l 838 561 q 988 493 908 561 q 1074 658 1068 586 q 1026 731 1026 678 l 1026 740 q 1089 842 1026 785 l 1064 924 l 1054 924 q 919 822 1015 822 l 914 822 q 764 896 849 822 q 688 1083 713 963 l 678 1083 q 581 1017 625 1056 l 571 1031 l 571 1040 q 682 1118 607 1079 l 688 1132 l 682 1138 q 822 1413 682 1314 l 857 1428 l 857 1432 l 783 1432 q 281 1138 490 1432 q 183 808 183 983 m 697 1142 l 697 1122 l 701 1122 l 774 1138 l 828 1138 l 861 1132 l 861 1142 q 949 1249 861 1249 q 1089 1054 1036 1249 l 1074 968 l 1118 867 q 1181 886 1156 886 l 1194 886 q 1210 1044 1210 975 l 1210 1103 q 1040 1379 1210 1279 q 953 1393 989 1393 q 721 1243 797 1393 q 697 1142 697 1197 m 876 1128 q 1054 992 1013 1078 l 1060 992 l 1069 1050 l 1069 1060 q 953 1200 1054 1200 l 943 1200 q 876 1128 876 1200 m 697 1093 q 783 929 742 929 q 910 867 783 903 q 1036 943 996 889 l 1040 949 l 1040 963 q 818 1108 936 1108 l 774 1108 l 697 1093 m 1113 857 q 1122 774 1122 836 q 1113 682 1122 713 l 1151 672 l 1190 861 l 1122 861 l 1118 857 l 1113 857 m 1069 769 l 1069 740 l 1083 697 l 1089 697 l 1093 756 l 1093 828 q 1069 769 1069 807 m 1317 731 l 1326 731 l 1326 726 l 1311 711 l 1307 711 l 1317 731 m 513 329 l 604 319 l 682 319 l 721 349 l 721 339 l 711 325 l 717 325 q 958 460 824 335 q 793 538 879 538 q 513 329 592 538 m 963 421 q 701 290 854 318 l 692 290 l 692 286 q 799 189 692 203 q 972 339 924 189 l 972 411 l 963 421 m 1204 189 l 1204 179 l 1214 88 q 1233 140 1224 88 l 1210 189 l 1204 189 z "},"W":{"ha":1928,"x_min":150,"x_max":2504,"o":"m 771 1461 l 825 1461 q 1263 1185 1108 1461 q 1307 983 1307 1086 l 1307 968 q 1278 697 1307 864 l 1313 713 l 1272 678 q 1189 151 1189 279 l 1189 121 l 1199 47 l 1204 47 q 1539 890 1238 322 q 1593 968 1583 968 q 1613 954 1613 961 q 1490 161 1490 258 q 1514 53 1499 54 q 1696 604 1574 329 q 1972 1063 1815 864 q 2415 1363 2213 1363 q 2504 1299 2504 1349 q 2415 1225 2504 1235 q 2332 1293 2382 1225 l 2313 1299 q 1869 869 2167 1299 q 1533 3 1576 340 q 1717 -71 1651 -71 q 1804 -26 1804 -71 l 1800 8 l 1804 13 l 1810 13 q 1858 -40 1849 13 q 1781 -115 1858 -94 q 1524 -17 1672 -115 q 1421 194 1488 -6 q 1401 347 1406 263 q 1460 683 1401 481 l 1460 688 l 1456 688 q 1268 206 1268 286 q 1218 -11 1239 104 l 1214 -17 l 1204 -17 q 1140 107 1189 -17 l 1135 107 q 958 22 1036 40 l 958 32 q 1125 126 992 32 q 1090 328 1090 256 l 1090 368 q 1135 649 1090 475 l 1100 658 q 1017 471 1074 535 q 1032 407 1032 447 q 908 210 1032 303 q 771 171 821 171 l 761 171 q 657 264 657 189 l 613 264 q 510 279 556 264 l 510 269 q 697 22 510 90 q 806 8 756 8 l 850 8 l 850 -1 l 775 -6 l 711 -6 q 481 151 558 -6 q 465 235 465 200 l 469 293 q 233 490 333 339 q 150 792 150 624 l 150 801 q 544 1413 150 1182 q 771 1461 674 1461 m 194 786 q 465 324 194 463 l 481 318 l 481 324 q 676 531 535 464 q 825 569 757 569 l 844 569 q 997 500 917 569 q 1067 683 1067 599 q 1036 742 1036 692 l 1036 751 q 1067 821 1036 786 q 908 1067 1067 943 q 810 1092 847 1092 l 775 1092 q 579 1003 697 1092 l 568 1018 l 568 1022 q 765 1117 663 1117 l 815 1117 q 1076 904 971 1117 l 1096 850 l 1100 856 l 1110 856 l 1100 846 l 1106 747 l 1106 697 l 1140 688 l 1179 875 l 1131 875 q 1185 904 1131 882 q 1199 1053 1199 986 l 1199 1063 q 924 1422 1199 1336 l 829 1432 l 761 1432 q 268 1101 478 1432 q 194 786 194 950 m 1332 742 l 1342 742 l 1342 738 l 1328 722 l 1322 722 l 1332 742 m 514 314 q 622 293 514 296 l 667 293 q 726 353 667 313 l 726 343 l 701 303 l 701 299 q 963 446 804 299 l 968 451 l 968 461 q 839 540 968 496 l 800 544 q 514 324 586 544 l 514 314 m 972 422 q 829 308 917 353 q 701 269 757 278 q 800 190 701 210 l 806 190 q 982 343 933 190 l 982 422 l 972 422 z "},"X":{"ha":1804,"x_min":90,"x_max":2094,"o":"m 1028 1461 l 1078 1461 q 1499 1153 1369 1461 q 1529 960 1529 1036 l 1533 960 q 1985 1328 1765 1328 q 2094 1243 2094 1306 l 2094 1224 q 2019 1143 2083 1143 l 2010 1143 q 1956 1199 1956 1151 l 1956 1268 q 1931 1282 1956 1279 q 1628 1060 1813 1282 l 1529 890 l 1504 306 l 1499 256 q 1713 -36 1499 79 q 1822 38 1760 -22 l 1842 22 q 1763 -47 1782 -47 l 1763 -51 l 1811 -61 q 1901 -17 1901 -61 l 1896 17 l 1901 22 l 1906 22 q 1956 -32 1946 22 q 1876 -107 1956 -86 q 1722 -67 1803 -107 l 1688 -71 l 1643 -71 q 1360 246 1422 -71 l 1356 310 l 1381 647 q 1197 315 1325 569 q 710 3 1015 3 q 418 72 518 3 q 90 647 90 260 q 457 1233 90 1018 q 696 1293 538 1272 q 1028 1461 842 1461 m 740 1293 l 779 1293 q 1163 994 1021 1293 q 1197 910 1183 910 l 1232 900 l 1232 906 q 1281 1004 1268 999 l 1286 1004 l 1296 994 l 1261 890 q 1390 861 1338 861 l 1400 861 l 1406 1019 l 1406 1029 q 1176 1417 1406 1324 l 1082 1432 l 1018 1432 q 740 1293 876 1432 m 631 1004 q 835 713 631 808 q 918 697 881 697 l 964 697 l 964 701 q 933 761 933 711 l 933 771 q 1003 875 933 824 l 1008 875 q 978 801 978 832 l 978 771 q 1028 713 989 713 q 1163 806 1096 726 l 1163 851 q 1113 896 1163 896 l 1028 896 q 1093 921 1028 910 l 1151 921 l 1151 925 q 1063 1108 1151 986 q 725 1258 936 1258 l 715 1258 q 631 1004 631 1158 m 125 618 q 393 121 125 311 l 393 126 q 358 250 358 183 q 463 479 358 364 q 408 638 408 544 l 408 678 q 432 771 408 753 l 443 771 l 453 761 q 438 657 438 710 q 488 493 438 551 q 721 588 606 588 l 740 588 q 924 464 861 588 l 929 404 q 1138 682 1074 496 q 1068 667 1104 667 l 1043 667 l 1013 672 q 949 663 990 663 l 899 663 q 621 896 721 663 q 601 1019 601 964 q 665 1247 601 1100 l 661 1247 q 349 1108 539 1247 q 125 618 125 893 m 1197 871 l 1197 846 l 1201 846 l 1207 871 l 1197 871 m 1236 851 q 1192 726 1192 803 l 1197 726 l 1211 732 q 1172 632 1179 706 q 929 360 1093 435 q 864 275 917 360 q 665 186 771 186 l 656 186 q 551 285 551 203 q 596 354 551 311 l 596 360 q 472 464 536 378 l 467 464 q 403 290 403 376 q 571 47 403 111 l 656 38 l 725 38 q 1132 319 971 38 q 1321 663 1199 397 q 1394 792 1394 775 l 1394 826 l 1356 826 q 1236 856 1314 826 l 1236 851 m 1232 761 l 1242 761 l 1242 757 l 1226 742 l 1221 742 l 1232 761 m 1088 701 l 1122 701 q 1151 751 1151 701 l 1088 701 m 492 483 q 721 354 589 354 l 769 354 q 879 385 879 365 l 879 410 q 756 553 879 517 l 696 563 q 492 483 578 563 m 611 350 l 592 294 q 686 206 622 206 l 700 206 q 874 340 818 206 q 785 325 821 325 l 725 325 q 611 350 671 325 m 1510 126 q 1663 -42 1533 -42 l 1672 -42 l 1672 -36 q 1514 121 1626 -36 l 1514 126 l 1510 126 z "},"Y":{"ha":1394,"x_min":86,"x_max":1906,"o":"m 829 1461 l 899 1461 q 1201 1272 1089 1461 q 1221 1174 1221 1219 q 1128 901 1221 1047 l 1132 851 l 1132 836 l 1128 801 l 1132 801 l 1217 871 l 1226 871 l 1236 861 q 1128 763 1168 774 l 1128 738 l 1122 688 l 1128 688 q 1217 718 1149 688 q 1122 658 1196 692 q 1107 494 1107 567 q 1217 643 1183 549 q 1469 1139 1353 1051 q 1742 1293 1606 1293 l 1747 1293 q 1900 1203 1864 1293 l 1906 1168 q 1836 1110 1890 1110 q 1792 1158 1794 1110 l 1796 1228 q 1757 1258 1786 1258 l 1703 1258 q 1469 1044 1582 1258 q 1340 529 1421 963 q 1157 172 1271 297 q 1286 29 1157 119 q 1429 -19 1329 -1 q 1519 24 1519 -19 l 1514 58 l 1519 64 l 1524 64 q 1574 10 1564 64 q 1494 -65 1574 -44 q 1147 138 1304 -65 l 1142 153 q 750 -10 963 -10 l 711 -10 q 408 68 518 -10 q 86 664 86 281 q 518 1263 86 1078 q 829 1461 642 1461 m 563 1283 l 563 1278 q 686 1293 631 1293 l 750 1293 q 1024 1199 888 1293 l 1024 1193 l 1008 1174 q 721 1268 864 1268 l 711 1268 q 518 1203 524 1254 q 488 1054 488 1128 q 771 703 488 789 l 819 699 l 875 699 q 914 813 886 699 q 1072 1060 971 922 l 1058 1110 l 1068 1110 l 1078 1079 l 1088 1079 q 1142 1238 1142 1179 l 1142 1249 q 894 1432 1142 1407 l 844 1432 q 563 1283 671 1432 m 126 618 q 399 103 126 314 l 403 103 q 364 238 364 168 q 671 569 364 467 l 725 574 l 746 574 q 933 411 933 542 q 810 213 933 307 q 671 172 722 172 l 661 172 q 557 272 557 189 q 626 356 557 310 l 626 346 q 597 282 597 304 q 690 193 628 193 l 706 193 q 885 346 835 193 l 885 396 q 760 539 885 503 l 701 549 q 408 311 479 549 l 408 276 q 588 29 408 94 l 626 19 l 667 19 l 671 14 l 676 19 l 696 19 q 1072 272 918 19 q 1047 435 1047 372 l 1047 460 q 885 658 918 460 l 885 668 q 483 911 588 668 q 458 1044 458 979 l 458 1060 q 483 1208 458 1115 l 478 1208 q 150 813 264 1113 q 126 618 126 692 m 1082 836 q 1038 747 1038 764 l 1082 772 l 1088 832 l 1088 836 l 1082 836 m 1242 743 l 1242 738 l 1232 728 l 1226 728 l 1242 743 m 1018 708 l 1018 699 l 1072 688 l 1072 718 l 1078 722 l 1078 728 l 1072 728 l 1018 708 m 1003 664 q 989 589 989 624 q 1053 490 1001 490 l 1053 494 q 1068 653 1053 585 l 1003 664 m 1103 465 l 1103 331 l 1107 331 q 1172 500 1172 475 q 1103 465 1121 465 z "},"Z":{"ha":1811,"x_min":94,"x_max":2092,"o":"m 1249 1461 l 1293 1461 q 1713 1324 1396 1461 q 1875 1293 1810 1293 l 1885 1293 q 2063 1426 1986 1293 l 2067 1432 l 2082 1432 q 2092 1417 2092 1432 q 1914 1229 2049 1314 q 1751 1185 1858 1204 q 1504 746 1614 1064 l 1406 494 l 1406 415 q 1529 110 1406 228 l 1535 110 q 1796 268 1725 110 l 1801 307 l 1801 322 l 1786 338 l 1707 317 l 1688 317 q 1633 382 1633 317 l 1633 386 q 1707 475 1649 475 l 1732 475 q 1840 317 1840 438 q 1658 32 1840 154 l 1732 17 q 1821 61 1821 17 l 1815 96 l 1821 100 l 1825 100 q 1875 46 1865 100 q 1796 -28 1875 -7 q 1624 17 1729 -28 q 1519 -3 1563 -3 l 1485 -3 q 1131 144 1372 -3 l 1125 144 q 731 -3 928 -3 l 661 -3 q 164 328 361 -3 q 94 624 94 463 l 94 633 q 479 1239 94 1040 q 686 1283 600 1283 l 760 1283 q 889 1254 821 1283 q 1249 1461 1038 1461 m 918 1244 q 1150 1028 1082 1176 q 1189 904 1169 988 q 1411 850 1375 850 l 1431 850 q 1717 1190 1468 951 q 1233 1372 1651 1190 q 1169 1382 1211 1382 l 1131 1382 q 918 1244 1017 1382 m 133 613 q 444 81 133 271 l 450 81 q 385 243 385 151 q 692 574 385 472 l 746 579 l 765 579 q 947 456 885 579 l 947 450 l 953 450 q 1115 657 1082 553 l 1061 657 q 957 746 957 681 l 957 761 q 1026 864 957 813 l 1032 864 q 1001 790 1001 822 l 1001 761 q 1100 692 1001 692 l 1131 692 q 1150 835 1150 774 l 1150 875 l 1140 885 l 1051 885 q 1115 908 1051 899 l 1144 908 l 1144 914 q 967 1185 1144 1051 l 903 1219 l 883 1156 q 957 1117 883 1117 q 1017 1051 999 1117 q 943 983 1017 993 l 928 983 q 844 1106 844 1006 q 874 1229 844 1161 l 868 1229 q 756 1254 808 1254 l 696 1254 q 222 949 428 1254 q 133 613 133 789 m 1189 869 l 1189 815 q 1175 697 1189 760 l 1233 722 q 1164 672 1225 707 q 1036 465 1156 597 q 947 382 947 407 l 928 317 l 1076 253 q 1406 810 1258 511 l 1406 815 l 1376 815 q 1189 869 1332 815 m 1253 751 l 1263 751 l 1263 746 l 1249 732 l 1243 732 l 1253 751 m 429 283 q 607 36 429 101 l 647 26 l 706 26 q 1036 208 854 26 q 903 293 953 276 q 756 189 867 222 l 692 179 l 682 179 q 578 278 578 196 q 647 361 578 317 l 647 351 q 617 288 617 310 q 711 199 647 199 l 725 199 q 883 307 835 199 l 879 307 l 790 338 l 706 328 l 701 328 q 667 347 675 328 l 667 351 q 715 376 678 376 l 731 376 l 790 367 q 903 421 869 392 q 731 554 903 519 l 721 554 q 429 317 500 554 l 429 283 m 1351 411 q 1194 199 1344 368 q 1494 115 1394 115 q 1357 411 1357 297 l 1351 411 m 839 347 l 899 332 l 899 338 l 903 367 l 903 376 l 899 376 q 839 347 840 354 z "},"[":{"ha":578,"x_min":13,"x_max":819,"o":"m 14 -446 l 13 -436 l 568 1165 l 817 1165 l 819 1154 l 813 1128 l 803 1121 l 653 1121 l 125 -403 l 279 -403 l 283 -414 l 272 -439 l 261 -446 l 14 -446 z "},"\\":{"ha":465,"x_min":272,"x_max":372,"o":"m 360 -197 l 288 -197 l 283 -187 l 272 1110 l 282 1115 l 325 1115 l 332 1107 l 372 -187 l 360 -197 z "},"]":{"ha":578,"x_min":-111,"x_max":693,"o":"m 693 1165 l 693 1154 l 140 -449 l -110 -449 l -111 -436 l -103 -410 l -94 -403 l 57 -403 l 582 1119 l 431 1119 l 424 1132 l 436 1157 l 446 1165 l 693 1165 z "},"^":{"ha":1389,"x_min":279,"x_max":1107,"o":"m 638 992 l 751 992 l 1107 610 l 1047 610 l 693 914 l 338 610 l 279 610 l 638 992 z "},"_":{"ha":696,"x_min":0,"x_max":696,"o":"m 0 -260 l 696 -260 l 696 -328 l 0 -328 l 0 -260 z "},"`":{"ha":696,"x_min":324,"x_max":482,"o":"m 401 681 l 482 529 l 444 529 l 343 646 q 324 685 324 668 q 360 718 324 718 q 401 681 382 718 z "},"a":{"ha":569,"x_min":-8,"x_max":688,"o":"m 324 213 q 106 -10 197 -10 q 23 29 54 -10 q -8 136 -8 68 q 129 394 -8 269 q 335 478 221 478 q 457 450 401 478 l 463 443 l 463 439 q 435 328 463 421 l 371 113 q 363 65 363 85 q 389 38 363 38 q 683 375 449 38 q 688 354 688 350 q 638 264 688 331 q 478 61 518 104 q 351 -12 408 -12 q 283 57 283 -12 q 324 213 283 97 m 390 426 q 329 446 368 446 q 185 339 260 446 q 81 97 81 192 q 124 35 81 35 q 239 132 169 35 q 390 426 314 238 z "},"b":{"ha":586,"x_min":76,"x_max":704,"o":"m 388 97 q 217 -12 307 -12 q 114 37 151 -12 q 76 175 76 86 q 268 736 76 399 q 443 961 365 908 l 450 958 q 463 890 463 940 q 389 543 463 707 q 168 208 322 394 q 168 181 168 194 q 167 165 167 167 q 247 33 167 33 q 372 129 314 33 q 351 221 351 171 q 443 458 351 369 l 449 458 q 467 388 467 432 q 407 132 467 243 q 450 99 424 99 q 550 169 488 99 q 700 376 599 228 q 704 356 704 371 q 661 268 704 333 q 450 65 526 65 q 388 97 411 65 m 175 268 q 388 749 388 521 q 375 842 388 799 q 175 268 249 678 z "},"c":{"ha":494,"x_min":13,"x_max":619,"o":"m 617 376 q 619 360 619 371 q 574 260 619 326 q 183 -17 383 -17 q 60 32 108 -17 q 13 157 13 81 q 101 367 13 265 q 313 482 203 482 q 396 456 365 482 q 426 390 426 431 q 401 331 426 356 q 338 307 375 307 q 296 328 311 307 q 347 399 347 351 q 303 450 347 450 q 204 389 254 450 q 137 269 163 338 q 111 144 111 200 q 221 22 111 22 q 617 376 399 22 z "},"d":{"ha":564,"x_min":-6,"x_max":679,"o":"m 311 189 q 110 -12 197 -12 q 26 26 57 -12 q -6 129 -6 64 q 106 375 -6 260 q 307 478 204 478 q 379 458 331 478 l 479 847 q 488 870 483 864 q 504 879 492 876 l 560 885 q 572 872 572 885 q 571 865 572 871 q 569 856 569 860 l 372 124 q 363 69 363 88 q 385 33 363 33 q 486 119 415 33 q 675 371 546 189 q 679 351 679 358 q 594 208 679 324 q 460 43 507 89 q 347 -14 400 -14 q 298 4 317 -14 q 279 50 279 22 q 311 189 279 90 m 368 411 q 315 444 344 444 q 204 364 271 444 q 82 97 82 217 q 129 33 82 33 q 242 129 176 33 q 368 411 314 235 z "},"e":{"ha":492,"x_min":14,"x_max":615,"o":"m 611 379 q 615 363 615 367 q 556 240 615 322 q 176 -17 369 -17 q 58 31 103 -17 q 14 157 14 78 q 110 379 14 268 q 300 482 199 482 q 383 455 351 482 q 415 388 415 428 q 338 256 415 322 q 110 140 253 185 q 213 22 110 22 q 397 111 296 22 q 611 379 506 206 m 110 172 q 274 261 210 196 q 333 394 333 324 q 288 449 333 449 q 185 378 235 449 q 110 172 128 297 z "},"f":{"ha":403,"x_min":-25,"x_max":531,"o":"m 51 111 q -25 165 -25 150 q -18 176 -24 171 l 1 206 q 13 214 7 214 q 29 208 21 214 l 65 185 q 347 971 211 828 l 354 971 q 383 819 383 935 q 171 308 383 529 q 133 142 163 229 q 236 107 178 107 q 372 179 304 107 q 529 393 419 229 q 531 383 529 390 q 531 375 531 376 q 474 261 531 339 q 346 113 394 153 q 206 60 282 60 q 110 89 153 60 q 153 -119 153 -40 q 14 -401 153 -308 l 8 -399 q -10 -251 -10 -375 q 51 111 -10 -121 m 22 -325 q 121 -111 121 -253 q 101 14 121 -49 q 22 -299 22 -176 l 22 -325 m 188 375 q 329 708 329 528 q 304 847 329 781 q 253 653 282 793 q 188 375 211 464 z "},"g":{"ha":572,"x_min":-10,"x_max":689,"o":"m 65 -401 l 57 -399 q 47 -356 47 -383 q 97 -193 47 -265 q 251 -57 144 -125 q 325 218 257 35 q 101 -1 204 -1 q 22 37 53 -1 q -10 138 -10 75 q 106 375 -10 265 q 339 478 214 478 q 463 439 463 478 q 418 261 463 408 l 335 -14 q 688 376 472 82 q 689 358 689 371 q 642 268 689 329 q 328 -57 456 28 q 65 -401 268 -317 m 117 -339 q 251 -97 222 -285 q 111 -300 111 -182 q 117 -339 111 -318 m 389 424 q 332 446 371 446 q 197 356 272 446 q 78 106 78 213 q 124 46 78 46 q 239 139 171 46 q 389 424 314 240 z "},"h":{"ha":633,"x_min":13,"x_max":751,"o":"m 17 29 l 97 321 q 261 761 171 588 q 418 963 343 921 l 422 963 q 453 860 453 928 q 201 383 453 651 l 144 171 q 440 474 344 474 q 497 451 475 474 q 518 393 518 428 q 488 276 518 367 l 440 138 q 426 69 426 97 q 454 46 426 46 q 749 371 529 46 q 751 347 751 360 q 650 188 751 313 q 418 -10 489 -10 q 339 74 339 -10 q 388 244 339 104 q 432 393 432 372 q 407 422 432 422 q 208 213 349 422 q 122 60 164 146 q 82 6 97 8 l 29 -4 q 26 -6 28 -4 q 22 -6 24 -6 q 13 8 13 -6 q 17 29 13 14 m 218 446 q 379 788 379 618 q 363 872 379 843 q 285 711 319 822 q 218 446 257 628 z "},"i":{"ha":343,"x_min":25,"x_max":465,"o":"m 46 165 l 133 439 q 161 463 143 461 l 213 474 l 217 474 q 226 463 226 474 q 224 454 226 461 l 129 163 q 110 72 110 103 q 144 33 110 33 q 463 381 225 33 q 464 372 463 378 q 465 363 465 367 q 390 228 465 329 q 106 -8 215 -8 q 25 76 25 -8 q 46 165 25 100 m 256 590 q 200 606 228 590 q 172 633 172 621 q 189 673 172 644 q 213 701 206 701 q 231 693 219 701 q 257 676 249 681 q 274 667 265 672 q 283 653 283 663 q 256 590 283 590 z "},"j":{"ha":338,"x_min":-51,"x_max":467,"o":"m 64 -94 l 0 -308 q -31 -394 -22 -382 l -35 -393 q -51 -300 -51 -360 q 26 4 -51 -87 q 57 175 33 85 l 129 443 q 154 469 135 467 l 208 479 l 214 479 q 226 467 226 479 q 224 454 224 457 l 74 -51 q 463 375 199 28 q 467 358 467 365 q 390 232 467 325 q 64 -94 183 -21 m 265 590 q 210 606 238 590 q 183 633 183 621 q 199 673 183 644 q 221 701 214 701 q 239 693 228 701 q 266 676 258 679 q 283 667 274 672 q 292 653 292 663 q 265 590 292 590 z "},"k":{"ha":636,"x_min":6,"x_max":756,"o":"m 10 18 l 133 457 q 268 796 190 660 q 414 967 340 924 l 422 965 q 450 868 450 939 q 201 388 450 654 l 144 168 q 467 478 329 478 q 531 454 506 478 q 557 394 557 431 q 343 204 557 300 q 450 51 390 51 q 751 379 526 51 q 756 360 756 372 q 697 253 756 333 q 539 60 599 117 q 419 -6 471 -6 q 319 65 367 -6 q 268 183 268 143 q 313 218 268 197 q 469 363 469 290 q 415 411 469 411 q 176 171 328 411 q 106 29 131 99 q 72 1 97 7 l 25 -8 q 22 -10 24 -8 q 18 -10 19 -10 q 6 1 6 -10 q 10 18 6 3 m 218 450 q 379 774 379 619 q 363 883 379 835 q 286 732 319 844 q 218 450 267 669 z "},"l":{"ha":439,"x_min":74,"x_max":560,"o":"m 179 274 q 165 157 165 211 q 232 38 165 38 q 364 124 283 38 q 556 381 435 201 q 560 356 560 356 q 486 228 560 329 q 201 -14 311 -14 q 108 31 143 -14 q 74 157 74 75 q 124 439 74 226 q 244 772 161 601 q 379 965 319 926 l 389 967 q 411 867 411 944 q 179 274 411 572 m 185 329 q 338 717 338 528 q 325 843 338 771 q 185 329 221 642 z "},"m":{"ha":906,"x_min":0,"x_max":1022,"o":"m 1 21 l 129 439 q 150 458 133 454 l 206 471 l 213 471 q 224 458 224 471 q 222 450 224 454 l 136 168 q 288 400 228 329 q 411 478 354 478 q 486 411 486 478 q 424 165 486 375 q 717 474 611 474 q 786 394 786 474 q 765 303 786 363 q 722 179 724 182 q 697 76 697 99 q 728 46 697 46 q 835 129 763 46 q 1021 375 896 199 q 1022 356 1022 371 q 953 231 1022 324 q 806 53 853 97 q 681 -10 740 -10 q 630 12 650 -10 q 610 65 610 33 q 657 249 610 121 q 704 394 704 376 q 675 422 704 422 q 457 165 613 422 q 394 46 433 126 q 358 0 374 3 l 311 -8 l 307 -8 q 292 -1 292 -8 q 296 18 292 10 l 388 351 q 397 399 397 386 q 375 426 397 426 q 172 181 315 426 q 106 49 142 128 q 74 1 85 3 l 14 -8 l 10 -8 q 0 1 0 -8 q 1 21 0 14 z "},"n":{"ha":629,"x_min":0,"x_max":747,"o":"m 1 22 l 125 426 q 158 463 139 458 l 206 474 q 217 475 208 475 q 226 463 226 475 q 224 454 226 461 l 129 154 q 440 478 339 478 q 494 455 472 478 q 517 399 517 432 q 482 261 517 360 q 424 72 424 94 q 450 50 424 50 q 743 375 513 50 q 747 356 747 354 q 646 196 747 328 q 411 -10 488 -10 q 355 15 378 -10 q 332 76 332 39 q 390 283 332 111 q 426 399 426 390 q 403 419 426 419 q 208 221 350 419 q 110 56 136 118 q 95 22 103 38 q 69 1 88 6 l 18 -6 l 13 -6 q 0 6 0 -6 q 1 22 0 18 z "},"o":{"ha":582,"x_min":8,"x_max":708,"o":"m 401 356 q 311 453 382 453 q 228 414 268 453 q 142 284 175 363 q 110 133 110 206 q 197 13 110 13 q 343 129 267 13 q 335 181 335 153 q 401 356 335 267 m 419 133 q 454 106 426 106 q 546 178 485 106 q 704 388 592 231 q 708 371 708 367 q 649 261 708 342 q 521 106 565 149 q 428 51 467 51 q 375 76 399 51 q 183 -18 281 -18 q 56 30 104 -18 q 8 158 8 78 q 107 376 8 271 q 317 482 206 482 q 428 432 382 482 q 474 304 474 382 q 419 133 474 231 z "},"p":{"ha":607,"x_min":-43,"x_max":736,"o":"m -17 -407 l -22 -407 q -43 -240 -43 -340 q 65 142 -43 -54 q 110 381 88 261 q 154 467 128 461 l 214 479 q 224 465 224 479 l 224 458 l 185 299 q 419 482 319 482 q 499 449 469 482 q 529 363 529 417 q 307 86 529 208 q 385 46 332 46 q 539 133 453 46 q 732 390 617 213 q 736 372 736 385 q 657 231 736 333 q 497 56 561 107 q 347 -4 422 -4 q 245 22 290 -4 q 200 69 200 49 q 222 93 200 82 q 276 121 250 107 q 428 339 428 210 q 364 411 428 411 q 167 217 282 411 q -17 -407 49 -308 m -1 -296 q 54 54 32 -231 q -12 -226 -12 -54 q -1 -296 -12 -267 z "},"q":{"ha":560,"x_min":-14,"x_max":679,"o":"m 144 -401 l 138 -399 q 133 -356 133 -387 q 179 -129 133 -271 q 296 189 208 -33 q 97 -4 185 -4 q 17 35 47 -4 q -14 140 -14 74 q 78 351 -14 247 q 324 478 189 478 q 449 439 449 478 q 393 243 449 422 l 343 82 q 383 69 363 69 q 497 147 426 69 q 672 379 558 215 q 679 358 679 368 q 610 239 679 328 q 485 90 524 128 q 385 39 429 39 q 351 43 364 39 l 351 26 q 144 -401 351 -201 m 157 -337 q 278 -173 232 -272 q 324 29 324 -74 l 324 38 q 157 -337 168 -254 m 375 426 q 321 446 357 446 q 200 379 258 446 q 68 106 68 231 q 117 42 68 42 q 375 426 214 42 z "},"r":{"ha":449,"x_min":94,"x_max":569,"o":"m 565 388 q 569 371 569 382 q 549 314 569 347 q 494 239 544 307 q 346 50 390 96 q 224 -14 281 -14 q 133 74 133 -14 q 279 389 133 172 q 149 335 194 335 q 94 383 94 335 q 119 458 94 425 q 179 494 144 492 l 181 490 q 165 446 165 457 q 206 411 165 411 q 371 458 236 411 l 376 454 q 222 78 222 128 q 260 39 222 39 q 372 128 297 39 q 565 388 421 186 z "},"s":{"ha":500,"x_min":1,"x_max":625,"o":"m 268 18 q 138 -14 193 -14 q 39 8 76 -14 q 1 64 1 31 q 24 108 1 90 q 81 125 46 125 q 119 117 100 125 l 119 113 q 93 65 93 96 q 165 18 93 18 q 251 43 218 18 q 283 106 283 68 q 261 164 283 138 q 200 217 246 182 q 126 276 142 263 q 97 339 97 307 q 158 438 97 393 q 307 482 219 482 q 403 418 403 482 q 376 372 403 393 q 307 347 350 350 l 303 356 q 329 407 329 379 q 272 449 329 449 q 206 429 232 449 q 179 381 179 410 q 211 321 179 350 q 292 260 251 290 q 364 149 364 201 q 324 64 364 108 q 619 390 433 79 q 625 375 625 386 q 549 230 625 332 q 414 81 474 128 q 268 18 344 26 z "},"t":{"ha":351,"x_min":33,"x_max":467,"o":"m 61 213 l 119 411 l 43 411 l 42 419 l 46 439 l 54 446 l 132 446 l 189 625 q 217 657 197 653 l 265 668 l 272 668 q 279 658 279 668 l 279 649 l 222 446 l 294 446 l 296 439 l 292 418 l 286 411 l 213 411 l 129 128 q 119 65 119 94 q 153 33 119 33 q 463 379 242 33 q 467 360 467 372 q 401 236 467 326 q 124 -14 221 -14 q 33 74 33 -14 q 61 213 33 118 z "},"u":{"ha":625,"x_min":14,"x_max":747,"o":"m 33 146 l 128 436 q 136 455 132 450 q 153 463 140 460 l 210 474 l 217 474 q 226 463 226 474 q 224 450 224 453 l 113 129 q 101 69 101 85 q 128 42 101 42 q 228 115 158 42 q 394 339 304 199 q 438 424 407 360 q 474 463 454 458 l 525 475 l 529 475 q 542 463 542 475 q 538 450 542 463 l 431 133 q 418 72 418 96 q 444 43 418 43 q 740 389 511 43 q 747 371 747 379 q 665 224 747 339 q 406 -12 497 -12 q 332 69 332 -12 q 399 300 332 115 q 85 -12 189 -12 q 14 61 14 -12 q 33 146 14 86 z "},"v":{"ha":585,"x_min":93,"x_max":704,"o":"m 375 121 q 192 -14 282 -14 q 93 163 93 -14 q 113 397 93 229 q 119 443 117 439 q 140 458 124 454 l 192 471 q 196 474 193 472 q 208 454 208 474 q 192 340 208 439 q 176 161 176 242 q 235 42 176 42 q 360 157 301 42 q 351 221 351 193 q 392 349 351 282 q 501 467 432 417 l 510 465 q 514 443 514 457 q 397 153 514 311 q 453 97 410 97 q 551 168 490 97 q 700 371 588 213 q 704 351 704 367 q 629 224 704 325 q 446 65 513 65 q 375 121 403 65 z "},"w":{"ha":899,"x_min":39,"x_max":1014,"o":"m 403 279 q 119 -12 233 -12 q 39 82 39 -12 q 54 171 39 114 l 128 443 q 149 463 129 460 l 204 471 q 209 472 207 471 q 213 474 211 474 q 221 465 221 474 q 217 450 221 475 l 138 168 q 121 86 121 108 q 161 42 121 42 q 371 282 235 42 q 429 410 390 317 q 474 461 450 457 l 526 471 l 533 471 q 539 463 539 471 q 538 446 539 454 l 465 200 q 446 90 446 133 q 494 33 446 33 q 671 171 558 33 q 665 232 665 221 q 694 369 665 304 q 769 469 724 433 l 776 467 q 792 401 792 447 q 704 168 792 299 q 764 97 711 97 q 865 167 804 97 q 1013 372 918 226 q 1014 354 1014 367 q 943 221 1014 318 q 761 65 831 65 q 676 136 700 65 q 453 -14 539 -14 q 364 89 364 -14 q 403 279 364 128 z "},"x":{"ha":606,"x_min":-61,"x_max":721,"o":"m 208 161 l 97 22 q -17 -65 28 -65 q -61 -17 -61 -65 q -4 81 -61 42 l 0 78 q -4 51 -4 40 q 29 17 -4 17 q 94 65 56 17 l 192 189 l 78 443 q 76 450 76 446 q 89 463 76 461 l 140 471 q 143 472 142 471 q 146 474 144 474 q 161 457 154 474 l 244 272 l 354 403 q 458 474 414 474 q 499 453 482 474 q 517 403 517 433 q 481 305 517 357 q 388 221 446 253 l 383 226 q 457 371 457 306 q 419 407 457 407 q 313 311 389 407 l 260 244 l 311 133 q 403 46 351 46 q 528 129 451 46 q 717 375 593 200 q 721 356 721 368 q 644 228 721 329 q 375 -12 463 -12 q 283 31 322 -12 q 208 161 249 68 z "},"y":{"ha":625,"x_min":22,"x_max":743,"o":"m 379 -72 q 119 -407 307 -339 l 111 -406 q 101 -347 101 -374 q 308 -47 101 -197 q 390 274 315 8 q 93 0 222 0 q 22 81 22 0 q 42 163 22 100 l 129 443 q 158 463 135 460 l 217 469 q 224 463 224 469 q 221 450 224 464 l 121 133 q 113 76 113 107 q 140 50 113 50 q 367 286 217 50 q 438 417 399 336 q 474 463 458 461 l 533 471 q 543 463 543 471 q 496 329 543 464 q 390 -25 436 163 q 739 372 536 94 q 743 354 743 356 q 661 221 743 321 q 379 -72 483 4 m 172 -347 q 307 -89 278 -293 q 163 -299 163 -186 q 172 -347 163 -319 z "},"z":{"ha":494,"x_min":0,"x_max":610,"o":"m 61 22 q 10 -12 35 -12 q 0 -6 0 -12 q 1 6 0 -3 l 47 93 q 69 110 56 110 l 85 110 l 321 367 q 193 390 217 390 q 145 357 164 390 q 115 324 126 324 q 93 338 93 324 q 100 364 93 347 q 113 397 110 389 q 133 458 128 451 q 175 478 144 478 q 249 467 188 478 q 390 443 326 451 q 440 482 425 482 q 457 475 457 482 q 432 439 457 465 l 117 101 q 313 57 279 57 q 433 139 363 57 q 606 375 486 199 q 610 346 610 363 q 510 192 610 324 q 376 38 426 82 q 268 -17 318 -17 q 188 -1 249 -17 q 61 22 113 15 z "},"{":{"ha":835,"x_min":144,"x_max":689,"o":"m 689 1193 l 689 1153 q 523 1107 564 1153 q 482 936 482 1061 l 482 819 q 439 581 482 647 q 239 475 389 503 q 439 371 389 449 q 482 132 482 303 l 482 13 q 521 -153 482 -111 q 689 -200 563 -199 l 689 -239 l 679 -239 q 440 -178 504 -239 q 375 43 375 -117 l 375 218 q 327 393 375 343 q 144 453 279 443 l 144 500 q 328 558 282 510 q 375 735 375 607 l 375 910 q 440 1131 375 1069 q 679 1193 504 1193 l 689 1193 z "},"|":{"ha":835,"x_min":372,"x_max":461,"o":"m 372 1232 l 461 1232 l 461 -435 l 372 -435 l 372 1232 z "},"}":{"ha":835,"x_min":146,"x_max":689,"o":"m 146 1193 l 153 1193 q 394 1132 331 1193 q 458 910 458 1071 l 458 735 q 506 558 458 607 q 689 500 553 510 l 689 453 q 506 393 553 443 q 458 218 458 343 l 458 43 q 394 -178 458 -118 q 153 -239 331 -239 l 146 -239 l 146 -200 q 314 -153 272 -199 q 354 13 354 -111 l 354 132 q 396 371 354 303 q 593 475 444 449 q 396 581 444 503 q 354 819 354 647 l 354 936 q 311 1106 354 1060 q 146 1153 268 1153 l 146 1193 z "},"~":{"ha":1157,"x_min":121,"x_max":1038,"o":"m 1038 508 l 1038 432 q 776 335 901 335 q 578 381 713 335 q 383 428 439 428 q 121 319 276 428 l 121 394 q 383 494 265 494 q 578 449 446 494 q 776 399 721 399 q 1038 508 883 399 z "},"":{"ha":644,"x_min":115,"x_max":560,"o":"m 283 -1 l 240 -17 l 283 163 q 115 363 115 189 q 240 621 115 511 q 410 688 311 683 l 446 842 l 490 860 l 449 685 q 560 640 528 672 l 560 629 l 542 606 l 533 606 q 443 654 479 653 l 332 196 q 510 315 428 203 l 518 315 l 547 282 l 547 276 q 324 165 469 174 l 283 -1 m 292 197 l 401 657 q 300 597 344 653 q 201 333 201 475 q 292 197 201 221 z "},"":{"ha":696,"x_min":204,"x_max":594,"o":"m 418 713 l 486 713 l 594 529 l 560 529 l 449 653 l 247 529 l 204 529 l 418 713 z "},"":{"ha":696,"x_min":244,"x_max":632,"o":"m 601 685 l 632 685 q 517 561 601 561 q 479 568 504 561 l 383 594 q 342 601 358 601 q 278 547 290 601 l 244 547 q 360 667 279 667 q 407 661 388 667 l 506 633 q 538 629 521 629 q 601 685 589 629 z "},"":{"ha":696,"x_min":-50,"x_max":644,"o":"m 644 299 l 629 256 l 624 251 l -46 251 l -50 257 l -35 300 l -25 304 l 644 299 z "},"":{"ha":1389,"x_min":33,"x_max":1436,"o":"m 1436 304 l 1422 251 l 33 251 l 50 304 l 1436 304 z "},"":{"ha":321,"x_min":149,"x_max":339,"o":"m 339 990 l 332 957 q 217 839 217 892 q 247 813 217 813 q 283 824 258 813 l 288 817 l 272 757 q 217 724 264 724 q 149 792 149 724 q 339 990 149 894 z "},"":{"ha":321,"x_min":150,"x_max":339,"o":"m 150 717 l 158 749 q 272 867 272 813 q 243 893 272 893 q 208 883 235 893 l 201 889 l 218 949 q 274 982 228 982 q 339 911 339 982 q 150 717 339 810 z "},"":{"ha":321,"x_min":39,"x_max":228,"o":"m 39 -142 l 50 -110 q 161 6 161 -44 q 132 35 161 35 q 97 25 124 35 l 90 31 l 107 93 q 163 121 114 121 q 228 54 228 121 q 39 -142 228 -46 z "},"":{"ha":531,"x_min":149,"x_max":550,"o":"m 339 990 l 332 957 q 217 839 217 892 q 247 813 217 813 q 283 824 258 813 l 288 817 l 272 757 q 217 724 264 724 q 149 792 149 724 q 339 990 149 894 m 550 990 l 539 957 q 426 839 426 893 q 454 813 426 813 q 492 824 469 813 l 499 817 l 482 757 q 426 724 472 724 q 358 792 358 724 q 550 990 358 894 z "},"":{"ha":531,"x_min":150,"x_max":550,"o":"m 150 717 l 158 749 q 272 867 272 813 q 243 893 272 893 q 208 883 235 893 l 201 889 l 218 949 q 274 982 228 982 q 339 911 339 982 q 150 717 339 810 m 360 717 l 368 749 q 482 867 482 813 q 450 893 482 893 q 415 883 444 893 l 410 889 l 426 949 q 482 982 436 982 q 531 962 511 982 q 550 911 550 942 q 360 717 550 811 z "},"":{"ha":531,"x_min":39,"x_max":439,"o":"m 39 -142 l 50 -110 q 161 6 161 -44 q 132 35 161 35 q 97 25 124 35 l 90 31 l 107 93 q 163 121 114 121 q 228 54 228 121 q 39 -142 228 -46 m 249 -142 l 257 -110 q 371 6 371 -43 q 339 35 371 35 q 304 25 333 35 l 300 31 l 317 93 q 372 121 328 121 q 439 54 439 121 q 249 -142 439 -46 z "},"":{"ha":1389,"x_min":144,"x_max":1179,"o":"m 208 -6 q 144 18 144 -6 q 165 93 144 93 q 232 78 183 90 q 253 22 253 78 q 208 -6 253 -6 m 668 -6 q 606 18 606 -6 q 625 93 606 93 q 696 78 633 93 q 717 22 717 78 q 668 -6 717 -6 m 1133 -6 q 1069 18 1069 -6 q 1090 93 1069 93 q 1158 78 1096 93 q 1179 22 1179 78 q 1133 -6 1179 -6 z "},"":{"ha":439,"x_min":157,"x_max":431,"o":"m 388 424 q 414 435 403 435 q 431 422 431 435 q 411 394 431 413 l 244 240 l 286 68 q 289 55 288 61 q 290 47 290 49 q 278 29 290 29 q 253 54 265 29 l 157 253 l 388 424 z "}}}
